<?xml version="1.0" standalone="no"?><!DOCTYPE svg PUBLIC "-//W3C//DTD SVG 1.1//EN" "http://www.w3.org/Graphics/SVG/1.1/DTD/svg11.dtd"><svg t="1647766089038" class="icon" viewBox="0 0 1228 1024" version="1.1" xmlns="http://www.w3.org/2000/svg" p-id="17417" xmlns:xlink="http://www.w3.org/1999/xlink" width="239.84375" height="200"><defs><style type="text/css"></style></defs><path d="M125.939406 0a49.147085 49.147085 0 0 1 49.351865 49.147085L175.086491 897.548645l1.023898 5.631437a31.536046 31.536046 0 0 0 25.80222 22.525747l930.825317-0.204779a49.147085 49.147085 0 1 1 0 98.49895h-979.870013a81.911809 81.911809 0 0 1-76.177982-76.485151V49.249475A49.147085 49.147085 0 0 1 125.939406 0z m939.528447 341.572243a49.147085 49.147085 0 1 1 69.625038 69.625037L759.322468 786.558144a48.942306 48.942306 0 0 1-25.597441 13.515449 48.839916 48.839916 0 0 1-44.744325-13.310669L463.723228 561.505449 300.411559 724.919508a49.147085 49.147085 0 0 1-61.843416 6.245775l-7.679232-6.245775a49.147085 49.147085 0 0 1 0-69.625037l197.714629-197.612239a49.044696 49.044696 0 0 1 34.812518-14.436957c13.310669 0 26.006999 4.812319 35.529247 14.334567l225.155085 225.257474z" p-id="17418"></path></svg>