<?xml version="1.0" standalone="no"?><!DOCTYPE svg PUBLIC "-//W3C//DTD SVG 1.1//EN" "http://www.w3.org/Graphics/SVG/1.1/DTD/svg11.dtd"><svg t="1638343720887" class="icon" viewBox="0 0 2027 1024" version="1.1" xmlns="http://www.w3.org/2000/svg" p-id="8755" xmlns:xlink="http://www.w3.org/1999/xlink" width="395.8984375" height="200"><defs><style type="text/css"></style></defs><path d="M1001.67875 342.3359375c-11.611875-11.61375-30.425625-11.61375-42.039375 0l-127.62656249999999 127.62468750000001-127.62468750000001-127.62468750000001c-11.611875-11.61375-30.4265625-11.61375-42.039375 0-11.611875 11.611875-11.611875 30.4265625 0 42.039375l127.62468750000001 127.62562499999999-127.62562499999999 127.62468750000001c-11.611875 11.615625000000001-11.611875 30.427500000000002 0 42.0384375 5.807812500000001 5.80875 13.412812500000001 8.7103125 21.01875 8.7103125 7.6068750000000005 0 15.213750000000001-2.9015625000000003 21.01875-8.7103125l127.62562499999999-127.62562499999999 127.62562499999999 127.62562499999999c5.806875 5.80875 13.41375 8.7103125 21.020625 8.7103125s15.211875-2.9015625000000003 21.01875-8.7103125c11.6128125-11.6109375 11.6128125-30.424687500000005 0-42.0384375l-127.62656249999999-127.62468750000001 127.62562499999999-127.62468750000001c11.611875-11.6128125 11.611875-30.4265625 0-42.039375l0.0028125-0.0009375zM832.0146875 32c-264.59062500000005 0-480.01874999999995 215.295-480.01874999999995 480.0178125s215.39343749999998 479.9821875 480.01874999999995 479.9821875c264.6909375 0 480.016875-215.2575 480.016875-479.9821875s-215.295-480.0178125-480.016875-480.0178125zM832.0146875 931.91c-231.5990625 0-419.9596875-188.3915625-419.9596875-419.9278125 0-231.665625 188.360625-419.9896875 419.9596875-419.9896875 231.598125 0 419.99437500000005 188.3240625 419.99437500000005 419.9896875 0.03 231.53625-188.39624999999998 419.9278125-419.99437500000005 419.9278125zM1932.8271875 707.5643749999999z" fill="#d81e06" p-id="8756" data-spm-anchor-id="a313x.7781069.0.i6" class="selected"></path></svg>