<?xml version="1.0" standalone="no"?><!DOCTYPE svg PUBLIC "-//W3C//DTD SVG 1.1//EN" "http://www.w3.org/Graphics/SVG/1.1/DTD/svg11.dtd"><svg t="1637076784441" class="icon" viewBox="0 0 1024 1024" version="1.1" xmlns="http://www.w3.org/2000/svg" p-id="2843" xmlns:xlink="http://www.w3.org/1999/xlink" width="200" height="200"><defs><style type="text/css"></style></defs><path d="M983.04 307.2v409.6a164.864 164.864 0 0 1-166.0928 163.84H353.8944a42.1888 42.1888 0 0 1-32.1536-14.9504l-271.36-327.68a40.96 40.96 0 0 1 0-52.8384l289.1776-327.68A40.96 40.96 0 0 1 371.712 143.36h445.2352A164.864 164.864 0 0 1 983.04 307.2z m-190.0544-122.88H393.4208a37.888 37.888 0 0 0-28.2624 12.4928L105.472 488.8576a35.84 35.84 0 0 0 0 46.8992L348.16 826.368a37.4784 37.4784 0 0 0 28.672 13.312h415.744a147.2512 147.2512 0 0 0 149.504-145.6128V329.9328A147.2512 147.2512 0 0 0 792.9856 184.32z" p-id="2844"></path><path d="M779.6736 346.7264a20.48 20.48 0 0 0-14.5408 5.9392L475.5456 642.2528a20.48 20.48 0 0 0 0 29.0816 20.48 20.48 0 0 0 14.5408 5.9392 20.48 20.48 0 0 0 14.5408-5.9392l289.5872-289.5872a20.48 20.48 0 0 0 0-29.0816 20.48 20.48 0 0 0-14.5408-5.9392z" p-id="2845"></path><path d="M490.0864 346.7264a20.48 20.48 0 0 0-14.5408 5.9392 20.48 20.48 0 0 0 0 29.0816l289.5872 289.5872a20.48 20.48 0 0 0 14.5408 5.9392 20.48 20.48 0 0 0 14.5408-5.9392 20.48 20.48 0 0 0 0-29.0816L504.6272 352.6656a20.48 20.48 0 0 0-14.5408-5.9392z" p-id="2846"></path></svg>