<?xml version="1.0" standalone="no"?><!DOCTYPE svg PUBLIC "-//W3C//DTD SVG 1.1//EN" "http://www.w3.org/Graphics/SVG/1.1/DTD/svg11.dtd"><svg t="1636703409336" class="icon" viewBox="0 0 1024 1024" version="1.1" xmlns="http://www.w3.org/2000/svg" p-id="102719" xmlns:xlink="http://www.w3.org/1999/xlink" width="200" height="200"><defs><style type="text/css"></style></defs><path d="M508.8 726.4c-112.8 0-226.4-12-338.4-35.2-7.2-1.6-12.8-8-12.8-16V349.6c0-8.8 7.2-16 16-16s16 7.2 16 16v312.8c212 42.4 426.4 42.4 637.6 0V349.6c0-8.8 7.2-16 16-16s16 7.2 16 16v326.4c0 7.2-5.6 14.4-12.8 16-112 22.4-224.8 34.4-337.6 34.4z" p-id="102720"></path><path d="M508.8 726.4c-112.8 0-226.4-12-338.4-35.2-7.2-1.6-12.8-8-12.8-16V349.6c0-8.8 7.2-16 16-16s16 7.2 16 16v312.8c212 42.4 426.4 42.4 637.6 0V349.6c0-8.8 7.2-16 16-16s16 7.2 16 16v326.4c0 7.2-5.6 14.4-12.8 16-112 22.4-224.8 34.4-337.6 34.4z" p-id="102721"></path><path d="M508.8 640.8c-112.8 0-224.8-11.2-336.8-34.4-4-0.8-7.2-4.8-6.4-9.6 0.8-4 4.8-7.2 9.6-6.4 220.8 45.6 445.6 45.6 666.4 0 4-0.8 8.8 1.6 9.6 6.4 0.8 4-1.6 8.8-6.4 9.6-111.2 22.4-224 34.4-336 34.4zM508.8 443.2c-1.6 0-2.4 0-4-0.8L16 328.8c-7.2-1.6-12-8-12-15.2s4.8-13.6 12-15.2L504.8 184c2.4-0.8 4.8-0.8 7.2 0l488.8 114.4c7.2 1.6 12 8 12 15.2s-4.8 13.6-12 15.2L512 443.2h-3.2zM90.4 312.8l418.4 98.4 418.4-98.4-418.4-97.6-418.4 97.6z" p-id="102722"></path><path d="M948 464.8c-8.8 0-16-7.2-16-16V318.4c0-8.8 7.2-16 16-16s16 7.2 16 16v130.4c0 8.8-7.2 16-16 16z" p-id="102723"></path><path d="M948 556c-32.8 0-60-27.2-60-60s26.4-60 60-60 60 27.2 60 60c-0.8 33.6-27.2 60-60 60z m0-88c-15.2 0-28 12.8-28 28s12.8 28 28 28 28-12.8 28-28c-0.8-15.2-12.8-28-28-28z" p-id="102724"></path><path d="M1004 841.6h-112.8c-4.8 0-9.6-2.4-12-5.6s-4-8.8-3.2-12.8l52-285.6c1.6-8 8.8-13.6 17.6-12.8h5.6c8-0.8 16 4.8 17.6 12.8l52 285.6c0.8 4.8-0.8 9.6-3.2 12.8s-8.8 5.6-13.6 5.6z m-93.6-32h74.4l-37.6-204.8-36.8 204.8z" p-id="102725"></path></svg>