<?xml version="1.0" standalone="no"?><!DOCTYPE svg PUBLIC "-//W3C//DTD SVG 1.1//EN" "http://www.w3.org/Graphics/SVG/1.1/DTD/svg11.dtd"><svg t="1636703435244" class="icon" viewBox="0 0 1024 1024" version="1.1" xmlns="http://www.w3.org/2000/svg" p-id="103647" xmlns:xlink="http://www.w3.org/1999/xlink" width="200" height="200"><defs><style type="text/css"></style></defs><path d="M630.4256 147.968a95.104 95.104 0 0 1 94.8736 89.9328l0.128 5.0432-0.0256 37.8112h7.5264a135.4752 135.4752 0 0 1 134.784 124.0576l0.3584 5.632 0.1024 5.5808v324.0192a135.4496 135.4496 0 0 1-129.6896 135.1424l-5.5552 0.1024H291.072a135.4496 135.4496 0 0 1-135.1424-129.6896l-0.1024-5.5552V416a135.4496 135.4496 0 0 1 129.6896-135.168l5.5552-0.1024h7.5008V242.944a95.1296 95.1296 0 0 1 84.992-94.464l4.9664-0.384 5.0432-0.1536h236.8512zM341.0176 572.5952H216.9344v167.4496A74.24 74.24 0 0 0 286.72 814.08l4.352 0.128h441.856a74.24 74.24 0 0 0 73.984-69.7856l0.1536-4.352-0.0256-167.4496h-130.3808v49.7152c0 15.7952-12.032 28.8256-27.4432 30.3872l-3.1232 0.1536c-15.7952 0-28.8256-12.032-30.3872-27.4176l-0.1792-3.1232v-49.7152h-213.4016v49.7152c0 15.7952-12.032 28.8256-27.4176 30.3872l-3.1232 0.1536c-15.8208 0-28.8512-12.032-30.4128-27.4176l-0.1536-3.1232v-49.7152z m391.9104-230.7328H291.072a74.24 74.24 0 0 0-73.984 69.7856l-0.1536 4.352v95.4624h124.0832v-26.3936c0-15.8208 12.032-28.8512 27.4432-30.4128l3.1232-0.1536c15.7952 0 28.8256 12.032 30.3872 27.4432l0.1792 3.1232-0.0256 26.3936h213.4016v-26.3936c0-15.8208 12.032-28.8512 27.4432-30.4128l3.1232-0.1536c15.8208 0 28.8512 12.032 30.4128 27.4432l0.1536 3.1232v26.3936h130.3808v-95.4624A74.24 74.24 0 0 0 737.28 342.016l-4.352-0.128z m-102.5024-132.8128h-236.8512c-17.4848 0-31.9744 13.3632-33.6896 30.4128l-0.1792 3.456-0.0256 37.8112h304.6144V242.944c0-17.4848-13.3632-31.9488-30.4128-33.6896l-3.456-0.1792z" p-id="103648"></path></svg>