<?xml version="1.0" standalone="no"?><!DOCTYPE svg PUBLIC "-//W3C//DTD SVG 1.1//EN" "http://www.w3.org/Graphics/SVG/1.1/DTD/svg11.dtd"><svg t="1648327138081" class="icon" viewBox="0 0 1024 1024" version="1.1" xmlns="http://www.w3.org/2000/svg" p-id="2525" xmlns:xlink="http://www.w3.org/1999/xlink" width="200" height="200"><defs><style type="text/css">@font-face { font-family: feedback-iconfont; src: url("//at.alicdn.com/t/font_1031158_u69w8yhxdu.woff2?t=1630033759944") format("woff2"), url("//at.alicdn.com/t/font_1031158_u69w8yhxdu.woff?t=1630033759944") format("woff"), url("//at.alicdn.com/t/font_1031158_u69w8yhxdu.ttf?t=1630033759944") format("truetype"); }
</style></defs><path d="M810.667 85.333H213.333c-46.933 0-85.333 38.4-85.333 85.334v640c0 23.466 19.2 42.666 42.667 42.666V896c0 23.467 19.2 42.667 42.666 42.667h85.334c23.466 0 42.666-19.2 42.666-42.667v-42.667h341.334V896c0 23.467 19.2 42.667 42.666 42.667h85.334c23.466 0 42.666-19.2 42.666-42.667v-42.667c23.467 0 42.667-19.2 42.667-42.666v-640c0-46.934-38.4-85.334-85.333-85.334zM298.667 896h-85.334v-42.667h85.334V896z m512 0h-85.334v-42.667h85.334V896z m42.666-85.333H170.667v-256h682.666v256z m0-298.667H170.667V256h682.666v256z m0-298.667H170.667v-42.666c0-23.467 19.2-42.667 42.666-42.667h597.334c23.466 0 42.666 19.2 42.666 42.667v42.666zM298.667 768C345.6 768 384 729.6 384 682.667c0-46.934-38.4-85.334-85.333-85.334s-85.334 38.4-85.334 85.334c0 46.933 38.4 85.333 85.334 85.333z m0-128c23.466 0 42.666 19.2 42.666 42.667 0 23.466-19.2 42.666-42.666 42.666S256 706.133 256 682.667C256 659.2 275.2 640 298.667 640z m426.666 128c46.934 0 85.334-38.4 85.334-85.333 0-46.934-38.4-85.334-85.334-85.334S640 635.733 640 682.667C640 729.6 678.4 768 725.333 768z m0-128C748.8 640 768 659.2 768 682.667c0 23.466-19.2 42.666-42.667 42.666s-42.666-19.2-42.666-42.666c0-23.467 19.2-42.667 42.666-42.667z" p-id="2526"></path></svg>