<?xml version="1.0" standalone="no"?><!DOCTYPE svg PUBLIC "-//W3C//DTD SVG 1.1//EN" "http://www.w3.org/Graphics/SVG/1.1/DTD/svg11.dtd"><svg t="1648327152961" class="icon" viewBox="0 0 1024 1024" version="1.1" xmlns="http://www.w3.org/2000/svg" p-id="2658" xmlns:xlink="http://www.w3.org/1999/xlink" width="200" height="200"><defs><style type="text/css">@font-face { font-family: feedback-iconfont; src: url("//at.alicdn.com/t/font_1031158_u69w8yhxdu.woff2?t=1630033759944") format("woff2"), url("//at.alicdn.com/t/font_1031158_u69w8yhxdu.woff?t=1630033759944") format("woff"), url("//at.alicdn.com/t/font_1031158_u69w8yhxdu.ttf?t=1630033759944") format("truetype"); }
</style></defs><path d="M532.078431 501.960784h281.09804v40.156863H491.921569V220.862745h40.156862zM807.664941 728.114196l82.221177-97.992784a10.039216 10.039216 0 0 1 14.155294-1.234824l15.380078 12.900392a10.039216 10.039216 0 0 1 1.234824 14.155295L847.681255 742.901961H953.72549a10.039216 10.039216 0 0 1 10.039216 10.039215v20.078432a10.039216 10.039216 0 0 1-10.039216 10.039216H823.215686v60.235294h130.509804a10.039216 10.039216 0 0 1 10.039216 10.039215v20.078432a10.039216 10.039216 0 0 1-10.039216 10.039215H823.215686v70.27451h-40.156862v-70.27451H662.588235a10.039216 10.039216 0 0 1-10.039215-10.039215v-20.078432a10.039216 10.039216 0 0 1 10.039215-10.039215h120.470589v-60.235294H662.588235a10.039216 10.039216 0 0 1-10.039215-10.039216v-20.078432a10.039216 10.039216 0 0 1 10.039215-10.039215h104.357647l-77.56298-86.136471a10.039216 10.039216 0 0 1 0.742902-14.185412l14.918274-13.43247a10.039216 10.039216 0 0 1 14.185412 0.742902l88.44549 98.223686z" p-id="2659"></path><path d="M615.474196 951.838118a454.475294 454.475294 0 0 1-79.831843 11.304157C286.479059 976.213333 73.908706 784.805647 60.857725 535.642353 47.786667 286.479059 239.194353 73.908706 488.357647 60.857725 737.520941 47.786667 950.091294 239.194353 963.142275 488.357647c1.626353 30.900706 0.100392 61.239216-4.296785 90.704314l-41.010196 2.148392a413.013333 413.013333 0 0 0 5.210353-90.75451c-11.896471-227.006745-205.57302-401.397961-432.589804-389.50149-227.006745 11.896471-401.397961 205.57302-389.50149 432.589804 11.896471 227.006745 205.57302 401.397961 432.589804 389.50149a413.615686 413.615686 0 0 0 79.791686-12.02698l2.138353 40.819451z" p-id="2660"></path></svg>