<?xml version="1.0" standalone="no"?><!DOCTYPE svg PUBLIC "-//W3C//DTD SVG 1.1//EN" "http://www.w3.org/Graphics/SVG/1.1/DTD/svg11.dtd"><svg t="1648327431594" class="icon" viewBox="0 0 1024 1024" version="1.1" xmlns="http://www.w3.org/2000/svg" p-id="5919" xmlns:xlink="http://www.w3.org/1999/xlink" width="200" height="200"><defs><style type="text/css">@font-face { font-family: feedback-iconfont; src: url("//at.alicdn.com/t/font_1031158_u69w8yhxdu.woff2?t=1630033759944") format("woff2"), url("//at.alicdn.com/t/font_1031158_u69w8yhxdu.woff?t=1630033759944") format("woff"), url("//at.alicdn.com/t/font_1031158_u69w8yhxdu.ttf?t=1630033759944") format("truetype"); }
</style></defs><path d="M917.504 222.208H665.6c0-47.104-38.912-84.992-84.992-84.992H417.792c-47.104 0-84.992 38.912-84.992 84.992H84.992c-21.504 0-43.008 17.408-43.008 43.008v204.8c0 21.504 17.408 43.008 43.008 43.008v332.8c0 21.504 17.408 43.008 43.008 43.008h750.592c21.504 0 43.008-17.408 43.008-43.008V512c21.504 0 43.008-17.408 43.008-43.008V260.096c-4.096-21.504-21.504-37.888-47.104-37.888zM417.792 179.2h166.912c21.504 0 43.008 17.408 43.008 43.008H375.808c0-25.6 21.504-43.008 41.984-43.008z m460.8 665.6H128V512h84.992v43.008c0 21.504 17.408 43.008 43.008 43.008h84.992c21.504 0 43.008-17.408 43.008-43.008V512h251.904v43.008c0 21.504 17.408 43.008 43.008 43.008h84.992c21.504 0 43.008-17.408 43.008-43.008V512h84.992v332.8h-13.312zM251.904 555.008v-128h84.992v128h-84.992z m417.792 0v-128h84.992v128h-84.992z m247.808-86.016H793.6v-43.008c0-21.504-17.408-43.008-43.008-43.008H665.6c-21.504 0-43.008 17.408-43.008 43.008v43.008H375.808v-43.008c0-21.504-17.408-43.008-43.008-43.008h-84.992c-21.504 0-43.008 17.408-43.008 43.008v43.008H84.992V260.096H916.48v208.896z" p-id="5920"></path></svg>