<?xml version="1.0" standalone="no"?><!DOCTYPE svg PUBLIC "-//W3C//DTD SVG 1.1//EN" "http://www.w3.org/Graphics/SVG/1.1/DTD/svg11.dtd"><svg t="1648327503170" class="icon" viewBox="0 0 1024 1024" version="1.1" xmlns="http://www.w3.org/2000/svg" p-id="8820" xmlns:xlink="http://www.w3.org/1999/xlink" width="200" height="200"><defs><style type="text/css">@font-face { font-family: feedback-iconfont; src: url("//at.alicdn.com/t/font_1031158_u69w8yhxdu.woff2?t=1630033759944") format("woff2"), url("//at.alicdn.com/t/font_1031158_u69w8yhxdu.woff?t=1630033759944") format("woff"), url("//at.alicdn.com/t/font_1031158_u69w8yhxdu.ttf?t=1630033759944") format("truetype"); }
</style></defs><path d="M662.84913799 619.70451084H642.36355332a267.05752559 267.05752559 0 0 0 136.57056152-225.83804678v-0.74493018V126.43647383a18.62325879 18.62325879 0 0 0-12.41550527-17.63001739l-19.86480879-7.07683886a712.52586563 712.52586563 0 0 0-469.18195664 0L257.48288018 108.68230127a18.62325879 18.62325879 0 0 0-12.41550528 17.63001738v266.80921523a267.80245576 267.80245576 0 0 0 136.57056153 225.96220196h-1.86232588a266.93337041 266.93337041 0 0 0-43.70257969 3.60049658A269.78893682 269.78893682 0 0 0 108.49681338 890.11422266v46.18568057a25.70009678 25.70009678 0 0 0 25.70009678 25.70009677h755.60766943A25.70009678 25.70009678 0 0 0 915.50467636 936.17574805V890.11422266a271.154642 271.154642 0 0 0-252.65553837-270.40971182z m-9.18747422-52.64174355c-3.10387675 2.48310088-6.20775263 4.71789229-9.43578457 6.95268281s-5.21451211 3.72465176-7.94592334 5.58697763-6.70437334 4.09711641-10.18071474 6.08359834-5.46282246 3.22803106-8.31838888 4.71789141-7.32514834 3.47634141-10.92564492 5.21451299-5.71113281 2.73141123-8.56669834 3.97296123-7.82176817 2.85556641-11.79473027 4.22127246-5.71113281 2.11063623-8.69085439 2.97972071-8.56669922 2.23479141-12.41550528 3.22803193-5.58697763 1.48986036-8.44254404 2.11063534c-4.84204746 0.99324053-9.68409404 1.61401552-14.65029668 2.23479141l-7.32514834 1.1173957c-7.44930352 0.74493018-14.89860703 1.1173957-22.47206485 1.11739571s-15.14691651 0-22.47206484-1.11739571l-7.20099316-1.1173957c-4.96620263-0.620775-9.9324044-1.24155088-14.77445186-2.23479141-2.73141123 0-5.46282246-1.36570518-8.19423369-1.98648016s-8.81500869-2.11063623-13.16043632-3.35218711l-8.1942337-2.85556641c-4.09711641-1.48986036-8.31838887-2.85556641-12.41550528-4.46958194l-8.07007851-3.60049658c-3.97296211-1.86232588-8.07007852-3.60049658-12.41550615-5.71113194l-7.07683799-3.97296211a222.2375502 222.2375502 0 0 1-11.67057509-6.95268281l-6.20775265-4.34542763c-3.84880693-2.73141123-7.69761387-5.46282246-11.29811044-8.31838799l-5.33866729-4.46958282c-3.72465176-3.22803106-7.44930352-6.33190781-10.92564492-9.80824921l-4.46958193-4.59373711c-3.60049658-3.60049658-7.07683799-7.32514834-10.42902422-11.29810957l-3.72465176-4.46958193c-3.35218623-4.09711641-6.70437334-8.31838887-9.8082501-12.41550616l-2.9797207-4.34542675c-3.10387675-4.59373711-6.08359746-9.3116294-8.81500957-14.02952169l-2.11063535-4.59373711q-4.09711641-7.44930352-7.57345869-15.14691649l-1.98648105-4.34542677q-3.35218623-7.82176817-6.08359747-15.89184755l-1.61401552-4.84204659c-1.7381707-5.21451211-3.10387675-10.5531794-4.46958194-15.89184755 0-1.98648106-0.99324053-3.97296211-1.36570606-5.95944229-1.1173957-4.96620263-1.86232588-10.05655957-2.60725605-15.02276221 0-2.60725605-0.74493018-5.21451211-0.99324053-7.82176816s0-3.22803106 0-4.71789229a936.00496582 936.00496582 0 0 1 457.01476085 0v4.46958193c0 3.35218623-0.86908536 6.82852763-1.36570606 10.18071476s-1.24155088 7.94592334-2.11063535 12.41550527-1.48986036 6.58021817-2.35894658 9.80824921-1.98648106 7.69761387-3.22803106 11.42226563-2.11063623 6.33190781-3.22803193 9.43578457-2.73141123 7.32514834-4.22127159 10.92564493-2.60725605 6.08359746-4.09711728 9.06331904l-5.21451211 10.42902422c-1.7381707 3.47634141-3.10387675 5.83528799-4.84204658 8.56669921s-4.09711641 6.58021817-6.20775352 9.80824922-3.60049658 5.46282246-5.58697676 8.07007852-4.71789229 6.20775263-7.07683886 9.18747422-4.09711641 5.09035693-6.20775264 7.57345869-5.21451211 5.71113281-7.94592334 8.44254316-4.46958193 4.71789229-6.82852852 6.95268369-5.71113281 5.21451211-8.69085351 7.82176816-5.71113281 3.60049658-8.31838887 5.58697765zM289.76319512 136.4930334a675.27934893 675.27934893 0 0 1 444.47509951-1e-8l7.44930352 2.60725606v229.68685372a973.00317305 973.00317305 0 0 0-459.37370655 0V139.47275498zM331.97591357 765.71085693a24.83101143 24.83101143 0 1 1-24.83101054 24.83101055 24.83101143 24.83101143 0 0 1 24.83101054-24.83101055z m546.2822461 159.04262637H145.74333008V890.11422266a232.54241924 232.54241924 0 0 1 168.23010059-224.34818555 415.17450703 415.17450703 0 0 0-6.82852765 67.78866006 62.07752813 62.07752813 0 1 0 37.2465167-3.84880694 370.97530664 370.97530664 0 0 1 9.3116294-71.76162216 233.90812529 233.90812529 0 0 1 25.82425108-1.61401553h265.69181952a369.36129112 369.36129112 0 0 1 8.8150087 63.69154365A74.4930334 74.4930334 0 0 0 605.11703662 790.54186748v68.28528077a18.62325879 18.62325879 0 0 0 37.24651671 0v-68.28528077a37.2465167 37.2465167 0 0 1 37.24651669-37.2465167 37.2465167 37.2465167 0 0 1 37.2465167 37.2465167v68.28528077a18.62325879 18.62325879 0 0 0 37.24651758 0v-68.28528077a74.4930334 74.4930334 0 0 0-62.94661347-73.49979287 409.71168457 409.71168457 0 0 0-6.9526837-57.23548066A234.03228047 234.03228047 0 0 1 878.25815967 890.11422266z" p-id="8821"></path><path d="M456.13096982 244.25962227h37.24651671v37.24651669a18.62325879 18.62325879 0 0 0 37.24651669 0v-37.24651669h37.2465167a18.62325879 18.62325879 0 0 0 0-37.2465167h-37.2465167v-37.24651671a18.62325879 18.62325879 0 0 0-37.24651669 0v37.24651671h-37.24651671a18.62325879 18.62325879 0 0 0 0 37.2465167z" p-id="8822"></path></svg>