<?xml version="1.0" standalone="no"?><!DOCTYPE svg PUBLIC "-//W3C//DTD SVG 1.1//EN" "http://www.w3.org/Graphics/SVG/1.1/DTD/svg11.dtd"><svg t="1648327388452" class="icon" viewBox="0 0 1038 1024" version="1.1" xmlns="http://www.w3.org/2000/svg" p-id="4708" xmlns:xlink="http://www.w3.org/1999/xlink" width="202.734375" height="200"><defs><style type="text/css">@font-face { font-family: feedback-iconfont; src: url("//at.alicdn.com/t/font_1031158_u69w8yhxdu.woff2?t=1630033759944") format("woff2"), url("//at.alicdn.com/t/font_1031158_u69w8yhxdu.woff?t=1630033759944") format("woff"), url("//at.alicdn.com/t/font_1031158_u69w8yhxdu.ttf?t=1630033759944") format("truetype"); }
</style></defs><path d="M488.27568359 959.18925781c23.29628906 0 42.20595703-18.69697266 42.20595704-42.67441406V107.48867188c0-23.59423828-19.20761719-42.71660156-42.20507813-42.71660157H359.74091797c-23.29628906 0.0421875-42.20595703 18.73828125-42.20595703 42.71660156V916.47265625c0 23.59511719 19.20761719 42.67441406 42.20507812 42.67441406h128.53476563zM360.03974609 107.57392578c0-0.34101563 127.85273437-0.08525391 127.85273438-0.08525391-0.38320312 0-0.29794922 809.02617187-0.29794922 809.02617188 0 0.34013672-127.85273437 0.08525391-127.85273437 0.08525391 0.34013672 0 0.29794922-809.02617187 0.29794921-809.02617188zM818.38583984 960.59375l124.18945313-33.26132812c22.52988281-6.04775391 35.90332031-29.00390625 29.728125-52.171875L762.89169922 93.73203125c-6.09082031-22.78476563-29.59980469-36.28564453-51.83085938-30.32314453L586.87050781 96.67109375c-22.52988281 6.046875-35.90332031 29.00390625-29.72724609 52.171875l209.36865234 781.42763672c6.17519531 22.78564453 29.64199219 36.24345703 51.87304688 30.32402344zM721.75009766 104.72099609c-0.34013672 0.08525391 209.11376953 781.51376953 209.11376953 781.51376953 0.08525391 0.34013672-123.46611328 33.17695313-123.46611328 33.17695313 0.34013672-0.08525391-209.11376953-781.51376953-209.11376954-781.51376953-0.12744141-0.29794922 123.46611328-33.17695313 123.46611329-33.17695313zM232.74072266 959.18925781c23.29628906 0 42.20507813-18.73916016 42.20507812-42.71748047V107.48867188c0-23.59423828-19.20761719-42.71660156-42.20507812-42.71660157H104.20507812C80.90966797 64.81425781 62 83.51035156 62 107.48867188V916.47265625c0 23.59511719 19.20761719 42.67441406 42.20595703 42.67441406h128.53476563zM104.50390625 107.57392578c0-0.34101563 127.85361328-0.08525391 127.85361328-0.08525391-0.38408203 0-0.29882813 809.02617187-0.29882812 809.02617188 0 0.34013672-127.85273437 0.08525391-127.85273438 0.08525391 0.34101563 0 0.29882813-809.02617187 0.29882813-809.02617188z" p-id="4709"></path></svg>