<?xml version="1.0" standalone="no"?><!DOCTYPE svg PUBLIC "-//W3C//DTD SVG 1.1//EN" "http://www.w3.org/Graphics/SVG/1.1/DTD/svg11.dtd"><svg t="1648327299623" class="icon" viewBox="0 0 1024 1024" version="1.1" xmlns="http://www.w3.org/2000/svg" p-id="2792" xmlns:xlink="http://www.w3.org/1999/xlink" width="200" height="200"><defs><style type="text/css">@font-face { font-family: feedback-iconfont; src: url("//at.alicdn.com/t/font_1031158_u69w8yhxdu.woff2?t=1630033759944") format("woff2"), url("//at.alicdn.com/t/font_1031158_u69w8yhxdu.woff?t=1630033759944") format("woff"), url("//at.alicdn.com/t/font_1031158_u69w8yhxdu.ttf?t=1630033759944") format("truetype"); }
</style></defs><path d="M777.74827607 457.8758624l-2.28103417-13.70172392c-5.4-32.38448291-22.3758624-61.43275898-47.80862052-81.80689658-25.61896582-20.49827607-57.4758624-30.61551709-90.24827607-28.76896583l-13.87241367 0.76034443-2.28103417-13.70172392c-7.68103418-46.0241376 4.54655214-93.18103418 33.54827607-129.35172392 31.26724102-39.0258624 77.91206924-61.41724102 127.95517265-61.41724102 37.0241376 0 73.35 12.77068974 102.28965557 35.96896582 34.15344786 27.3413795 55.62931026 66.35172393 60.45517266 109.84655215 4.8258624 43.49482734-7.58793076 86.26034443-34.96034444 120.41379316-29.01724102 36.20172393-72.35689658 58.43793076-118.90862051 60.99827608L777.74827607 457.8758624zM650.32068974 302.43965557c35.56551709 1.14827607 68.89655214 13.42241367 96.71896583 35.68965556 27.60517266 22.11206924 47.14137949 52.47931026 55.97068974 86.61724101 32.69482734-5.0741376 62.51896583-22.14310342 83.28103419-48.04137948 22.1741376-27.68275898 32.22931026-62.34827607 28.31896581-97.60344786-3.89482734-35.25517266-21.28965557-66.87931026-48.98793076-89.03793076-23.80344786-19.07068974-52.46379316-29.15689658-82.89310341-29.15689658-40.57758633 0-78.39310342 18.13965557-103.74827608 49.77931025C658.26551709 236.56896582 648.11724102 269.40344786 650.32068974 302.43965557z" p-id="2793"></path><path d="M453.06551709 778.98965557c-17.00689658 0-60.53275898-37.27241367-67.5-47.2655171-5.10517266-7.3241376-4.43793076-13.51551709-2.99482735-17.4258624 30.7241376-82.86206924 120.18103417-221.78793076 158.64827608-269.82931024 25.57241367-31.96551709 43.9758624-50.55517266 57.86379316-58.53103419 5.24482734-3.01034443 12.22758633-4.48448291 21.32068975-4.48448291 20.52931026 0 52.5413795 7.92931026 74.26551709 25.33965557 30.67758633 24.56379317 51.1758624 65.38965557 43.02931025 85.67068974-5.47758633 13.57758633-20.94827607 33.71896582-37.6758624 54.9155171l-4.84137949 6.16034443c-37.86206924 48.66206924-154.90862051 170.16206924-232.54137949 222.57931025l-3.9258624 2.65344785L453.06551709 778.98965557zM414.45862051 717.85172393c8.25517266 8.13103418 27.1241376 22.57758633 36.99310342 28.30344784 75.0258624-52.78965557 183.46034443-165.66206924 219.2741376-211.70172391l4.95-6.30000001c10.13275898-12.84827607 28.98620683-36.74482734 33.25344785-47.29655215 0.07758633-4.12758633-9.03103418-30.13448291-33.64137949-49.85689658-15.03620684-12.0258624-39.4913795-18.52758633-54.86896583-18.52758633-4.6241376 0-6.37758633 0.62068974-6.39310341 0.63620684-6.43965557 3.73965557-20.62241367 15.84310342-48.58448292 50.75689658C529.17758633 509.14482734 446.4086205 637.23965557 414.45862051 717.85172393z" p-id="2794"></path><path d="M744.88275898 489.67068974c-12.4913795 0-22.53103418-7.15344786-25.61896582-18.21724101-4.76379317-17.1-12.4913795-37.0086205-33.78103418-55.14827607-7.7741376-6.6258624-24.78103417-15.61034443-61.57241367-20.88620684-9.9-1.41206924-17.64310342-6.51724102-21.81724101-14.35344785-4.8258624-9.03103418-4.31379317-20.56034443 1.39655214-32.46206924 0.49655214-1.0241376 0.85344785-1.95517266 1.19482734-2.82413759 1.98620684-4.98103418 6.11379317-15.36206924 20.09482735-17.45689659 36.69827607-5.55517266 71.41034443 5.10517266 105.68793077 32.57068975 30.95689658 24.79655215 49.00344786 53.95344786 53.64310341 86.63275898 1.81551709 12.75517266-3.53793076 25.35517266-13.95 32.88103419l-1.76896582 1.27241367C761.20689658 486.81551709 752.84310342 489.67068974 744.88275898 489.67068974zM630.28793076 364.94310342c35.2241376 5.35344786 59.64827607 14.4 75.32068974 27.74482734 25.51034443 21.73965557 36.09310342 45.72931026 42.05172393 65.26551709 0.7913795-0.3258624 1.66034443-0.80689658 2.60689659-1.47413759l1.75344784-1.27241368c0.99310342-0.71379316 1.53620683-2.01724102 1.35-3.30517265-3.4913795-24.6258624-17.73620683-47.09482734-42.31551709-66.78620684-26.17758633-20.96379316-51.20689658-29.56034443-78.05172391-26.56551709-0.45 1.11724102-0.97758633 2.29655215-1.56724102 3.53793076C630.9086205 363.18965557 630.55172393 364.15172393 630.28793076 364.94310342z" p-id="2795"></path><path d="M417.1741376 810.55172393c-12.84827607 0-26.4413795-4.98103418-37.27241367-13.67068975-20.62241367-16.51034443-26.19310342-37.83103417-22.63965557-50.63275898 6.05172393-21.86379316 22.25172393-24.78103417 28.9241376-24.99827608l7.12241367-0.26379316 4.84137949 5.24482734c0.10862051 0.10862051 10.25689658 11.06379316 21.83275898 19.52068975 15.53275898 11.34310342 24.3 15.75 24.39310342 15.79655215l4.00344786 1.98620683 2.38965556 3.83275899c3.97241367 6.48620683 5.15172393 18.40344785-4.63965556 30.64655215C439.59655214 806.09827607 429.3241376 810.55172393 417.1741376 810.55172393zM389.18103418 760.71034443c1.70689658 3.36724102 4.77931026 7.66551709 10.11724101 11.96379317 4.23620683 3.38275898 9.48103418 5.74137949 14.36896583 6.54827607-3.50689658-2.32758633-7.51034443-5.10517266-12.01034444-8.39482734S392.90517266 764.01551709 389.18103418 760.71034443z" p-id="2796"></path><path d="M82.66896582 857.33620684c-4.53103418 0-9.04655214-1.98620684-12.10344785-5.80344786-5.36896583-6.68793076-4.29827607-16.44827607 2.38965557-21.80172392 29.1258624-23.4 99.37241367-48.52241367 145.97068974-46.42758633 21.7241376 1.08620683 43.65 12.32068974 64.83103418 23.18275898 21.50689658 11.03275898 43.71206924 22.46896582 57.19655215 17.6741376 26.30172393-9.34137949 33.37758633-42.02068974 33.43965557-42.34655214 1.62931026-8.41034443 9.74482734-13.91896582 18.20172392-12.25862051 8.41034443 1.62931026 13.90344786 9.7913795 12.25862051 18.20172392-0.40344786 2.04827607-10.30344785 50.30689658-53.51896583 65.63793076-26.03793076 9.31034443-54.35689658-5.26034443-81.72931024-19.28793076-18.26379316-9.37241367-37.16379316-19.07068974-52.23103419-19.8-37.9241376-1.98620684-101.26551709 20.5758624-124.99137948 39.61551709C89.49655214 856.21896582 86.06724102 857.33620684 82.66896582 857.33620684z" p-id="2797"></path></svg>