<?xml version="1.0" standalone="no"?><!DOCTYPE svg PUBLIC "-//W3C//DTD SVG 1.1//EN" "http://www.w3.org/Graphics/SVG/1.1/DTD/svg11.dtd"><svg t="1648327493556" class="icon" viewBox="0 0 1024 1024" version="1.1" xmlns="http://www.w3.org/2000/svg" p-id="8404" xmlns:xlink="http://www.w3.org/1999/xlink" width="200" height="200"><defs><style type="text/css">@font-face { font-family: feedback-iconfont; src: url("//at.alicdn.com/t/font_1031158_u69w8yhxdu.woff2?t=1630033759944") format("woff2"), url("//at.alicdn.com/t/font_1031158_u69w8yhxdu.woff?t=1630033759944") format("woff"), url("//at.alicdn.com/t/font_1031158_u69w8yhxdu.ttf?t=1630033759944") format("truetype"); }
</style></defs><path d="M512 836.3363264c-58.51428587 0-113.1276192-22.8484352-154.36625813-64.0870752-8.91646293-8.91646293-8.91646293-22.8484352 0-31.76489707 8.91646293-8.91646293 22.8484352-8.91646293 31.76489706 0 32.879456 32.879456 76.34721067 50.7123808 123.15864 50.7123808s90.279184-17.8329248 123.15863894-50.7123808c8.91646293-8.91646293 22.8484352-8.91646293 31.76489813 0 8.91646293 8.91646293 8.91646293 22.8484352 0 31.76489707-42.3531968 41.23863893-96.96653013 64.0870752-155.480816 64.0870752z" p-id="8405"></path><path d="M512 947.7921088c-149.3507488 0-283.6549664-90.83646293-339.94013653-227.36979627-57.95700693 3.3436736-105.88299307-43.46775467-105.88299307-100.31020373 0-49.59782293 36.2231296-90.83646293 83.5918368-99.19564587 23.40571413-141.54884373 129.84598613-259.1346944 269.72299307-295.357824 11.7028576-3.3436736 23.96299307 3.90095253 27.30666666 16.16108907 3.3436736 11.7028576-3.90095253 23.96299307-16.161088 27.30666667-128.17414933 33.43673493-224.5834016 144.3352384-239.0726528 275.85306133-1.11455787 11.7028576-11.14557867 20.06204053-22.8484352 19.5047616h-1.6718368c-30.65034027 0-55.7278912 25.07755093-55.7278912 56.28517013s25.07755093 56.28517013 56.28517014 56.28517014c4.45823147 0 9.47374187-0.55727893 13.93197226-1.6718368 11.14557867-2.78639467 22.8484352 3.3436736 26.74938774 13.93197333 45.6968704 128.73142827 167.74095253 215.10965973 304.27428586 215.10965973s259.1346944-86.37823147 304.27428587-215.10965973c3.90095253-11.14557867 15.60380907-17.27564587 26.74938773-13.93197333 5.0155104 1.11455787 9.47374187 1.6718368 13.93197227 1.6718368 31.2076192 0 56.28517013-25.07755093 56.28517013-56.28517014s-25.07755093-56.28517013-56.28517013-56.28517013h-1.6718368c-11.7028576 0-21.73387733-8.359184-22.8484352-19.5047616-15.04653013-131.51782293-110.89850347-242.4163264-239.0726528-275.85306133-11.7028576-3.3436736-18.94748267-15.04653013-16.161088-27.30666667s15.04653013-18.94748267 27.30666667-16.16108907c139.87700693 36.2231296 246.31727893 153.8089792 269.72299306 295.357824 47.3687072 8.359184 83.5918368 49.59782293 83.5918368 99.19564587 0 55.7278912-45.13959147 100.86748267-100.86748373 100.86748267h-5.01550933c-56.84244907 136.53333333-191.14666667 226.81251733-340.49741547 226.81251733z" p-id="8406"></path><path d="M374.90938773 548.2231296m-39.00952426 0a39.00952427 39.00952427 0 1 0 78.01904853 0 39.00952427 39.00952427 0 1 0-78.01904853 0Z" p-id="8407"></path><path d="M650.76244907 548.2231296m-39.00952427 0a39.00952427 39.00952427 0 1 0 78.01904747 0 39.00952427 39.00952427 0 1 0-78.01904747 0Z" p-id="8408"></path><path d="M512 394.97142827c-60.18612267 0-109.22666667-46.81142827-109.22666667-104.7684352 0-76.34721067 44.0250336-151.02258453 123.71591787-210.09414934 6.6873472-5.0155104 15.60380907-5.57278933 23.4057152-2.22911573 7.24462613 3.90095253 12.26013653 11.7028576 12.26013547 20.06204053 0 51.82693867 13.93197227 74.11809493 28.97850346 97.52381014 14.4892512 22.29115627 30.65034027 47.92598613 30.65034027 94.7374144C621.22666667 348.16 572.18612267 394.97142827 512 394.97142827z m8.91646293-252.44734614c-35.66585067 33.43673493-73.560816 84.14911573-73.56081706 147.67891094 0 33.43673493 28.97850347 60.18612267 64.64435413 60.18612266 35.66585067 0 64.64435413-27.30666667 64.64435413-60.18612266 0-33.99401387-10.58829973-50.15510187-23.4057152-70.2171424-11.7028576-18.94748267-25.63482987-40.68136107-32.322176-77.46176854z" p-id="8409"></path></svg>