<?xml version="1.0" standalone="no"?><!DOCTYPE svg PUBLIC "-//W3C//DTD SVG 1.1//EN" "http://www.w3.org/Graphics/SVG/1.1/DTD/svg11.dtd"><svg t="1648327365692" class="icon" viewBox="0 0 1024 1024" version="1.1" xmlns="http://www.w3.org/2000/svg" p-id="4026" xmlns:xlink="http://www.w3.org/1999/xlink" width="200" height="200"><defs><style type="text/css">@font-face { font-family: feedback-iconfont; src: url("//at.alicdn.com/t/font_1031158_u69w8yhxdu.woff2?t=1630033759944") format("woff2"), url("//at.alicdn.com/t/font_1031158_u69w8yhxdu.woff?t=1630033759944") format("woff"), url("//at.alicdn.com/t/font_1031158_u69w8yhxdu.ttf?t=1630033759944") format("truetype"); }
</style></defs><path d="M373.729838 829.444586c-85.618493 0-161.888449-57.608158-185.524374-140.086953l-0.881938-3.033865-3.10442-0.529163c-15.345713-2.610535-29.597823-7.443553-42.438832-14.322665-32.490578-17.532918-56.232335-46.672133-66.815586-81.984911-10.58325-35.348055-6.77328-72.706928 10.72436-105.232783l102.763358-190.639611 0.14111-0.493885c11.57102-39.122748 35.947773-74.329693 68.614738-99.129776 33.760568-25.646743 74.047473-39.22858 116.451029-39.22858h271.001757c39.404968 0 77.328281 11.85324 109.677748 34.325007 31.573363 21.942605 55.73845 52.35181 69.814173 88.017364l0.105833 0.28222 111.512178 206.867261c17.49764 32.525855 21.30761 69.884728 10.72436 105.232783-10.58325 35.348055-34.325008 64.451993-66.815586 81.984911-13.934613 7.514108-29.280325 12.55879-45.613807 14.95766l-3.174975 0.458608-0.881938 3.10442c-23.812313 82.126021-100.011713 139.487236-185.383264 139.487236h-270.895924z m0-638.205257c-86.359321 0-156.596824 70.237503-156.596824 156.596824v288.499397c0 86.359321 70.237503 156.596824 156.596824 156.596823h271.001757c86.359321 0 156.596824-70.237503 156.596823-156.596823V347.836153c0-86.359321-70.272781-156.596824-156.596823-156.596824h-271.001757z m464.146071 207.925586v237.170635c0 0.98777-0.070555 1.940263-0.14111 2.892755-0.070555 0.881938-0.105833 1.799153-0.14111 2.716367l-0.176388 6.949668 6.667448-2.010818c6.843835-2.081373 12.876288-4.550798 18.450132-7.514107 23.918145-12.911565 41.380508-34.325008 49.176836-60.359803 7.796328-25.96424 4.974128-53.48069-7.90216-77.434113l-56.479278-104.774176-9.45437 2.363592z m-720.013781 102.375306c-12.876288 23.953423-15.698488 51.434595-7.90216 77.434113 7.76105 25.999518 25.223413 47.448238 49.176836 60.359803 4.444965 2.39887 9.383815 4.480243 15.134047 6.420505l6.77328 2.293038-0.176387-7.161333c-0.035278-0.776105-0.070555-1.55221-0.14111-2.328315-0.035278-0.740828-0.105833-1.481655-0.105833-2.25776v-231.385124l-9.419092-2.363593-53.339581 98.988666z" p-id="4027"></path><path d="M615.73349 655.350122c-41.098288 0-78.704103-20.954835-100.681986-56.055948l-4.2333-6.77328-4.2333 6.77328c-21.942605 35.101113-59.583698 56.055948-100.646709 56.055948-10.054088 0-18.273745-8.18438-18.273745-18.238467 0-10.054088 8.18438-18.273745 18.273745-18.273745 45.366865 0 82.267131-36.900265 82.267131-82.267131 0-2.11665 0.388053-4.2333 1.234713-6.420505l1.481655-3.986358-3.66886-2.11665c-14.95766-8.642988-23.882868-23.953423-23.882868-40.957177 0-26.140628 21.272333-47.448238 47.448238-47.448238s47.448238 21.272333 47.448238 47.448238c0 16.968478-8.925208 32.278913-23.882868 40.957177l-3.66886 2.11665 1.481655 3.95108c0.84666 2.222483 1.234713 4.339133 1.234712 6.420505 0 45.366865 36.935543 82.267131 82.302409 82.267131 10.054088 0 18.238468 8.18438 18.238467 18.273745 0 10.089365-8.18438 18.273745-18.238467 18.273745z m90.345678-243.273641c-22.965653 0-41.62745-18.661798-41.627451-41.627451 0-22.930375 18.661798-41.62745 41.627451-41.62745 22.930375 0 41.592173 18.661798 41.592172 41.62745s-18.661798 41.62745-41.592172 41.627451z m-390.486651 0c-22.965653 0-41.62745-18.661798-41.62745-41.627451 0-22.930375 18.661798-41.62745 41.62745-41.62745 22.930375 0 41.62745 18.661798 41.627451 41.62745-0.035278 22.965653-18.697075 41.62745-41.627451 41.627451z" p-id="4028"></path></svg>