<?xml version="1.0" standalone="no"?><!DOCTYPE svg PUBLIC "-//W3C//DTD SVG 1.1//EN" "http://www.w3.org/Graphics/SVG/1.1/DTD/svg11.dtd"><svg t="1648327463915" class="icon" viewBox="0 0 1024 1024" version="1.1" xmlns="http://www.w3.org/2000/svg" p-id="7157" xmlns:xlink="http://www.w3.org/1999/xlink" width="200" height="200"><defs><style type="text/css">@font-face { font-family: feedback-iconfont; src: url("//at.alicdn.com/t/font_1031158_u69w8yhxdu.woff2?t=1630033759944") format("woff2"), url("//at.alicdn.com/t/font_1031158_u69w8yhxdu.woff?t=1630033759944") format("woff"), url("//at.alicdn.com/t/font_1031158_u69w8yhxdu.ttf?t=1630033759944") format("truetype"); }
</style></defs><path d="M927.80338555 589.39736328c-22.82131406 26.54986729-51.04260176 42.42835898-84.59957725 47.76404678v203.1418415c0 20.12132812-6.42853916 37.92838183-19.09276172 53.35687617-12.79279336 15.42849434-28.92842666 25.07130352-48.34261582 29.12128243v18.12848115a20.24989893 20.24989893 0 0 1-6.55710996 14.52849872 20.82846709 20.82846709 0 0 1-15.10706689 6.55710997 19.15704668 19.15704668 0 0 1-14.59278457-6.55710997 21.02132373 21.02132373 0 0 1-6.04282676-14.52849872v-17.09991475h-442.92635683v17.09991475a21.02132373 21.02132373 0 0 1-6.04282677 14.52849872 19.73561573 19.73561573 0 0 1-15.10706776 6.55710997 19.73561573 19.73561573 0 0 1-15.1070669-6.55710997 21.02132373 21.02132373 0 0 1-6.04282676-14.52849872v-18.12848115a82.7353002 82.7353002 0 0 1-48.34261582-29.18556826 81.19245146 81.19245146 0 0 1-19.09276172-53.29259034v-203.1418415a137.12074278 137.12074278 0 0 1-84.59957637-47.76404678A137.95645342 137.95645342 0 0 1 62.00771416 496.44068487c0-35.54982246 11.76422695-66.7282377 35.22839502-93.53524659 23.46416807-26.80700888 52.71402217-42.55692979 87.62099063-47.24976357a328.49835732 328.49835732 0 0 1 103.62805312-204.17040791C352.25626308 91.82842227 427.47017276 62 513.99831113 62c83.8924374 0 157.24207089 28.15700185 219.98461465 84.47100644a325.92694219 325.92694219 0 0 1 109.28516748 210.21323468c33.49268964 5.33568779 61.71397734 21.2141795 84.53529229 47.69976093 22.7570291 26.48558145 34.19982862 57.21399932 34.19982861 92.05668282 0 35.48553662-11.44279951 66.53538193-34.19982861 92.95667841z m-36.25696143-21.5998919a96.42808916 96.42808916 0 0 0 29.18556827-70.90678828c0-27.77128945-9.77137998-51.42831416-29.18556827-70.84250331a94.94952539 94.94952539 0 0 0-69.42822451-29.18556826c-27.57843369 0-50.91403096 9.70709414-70.07107852 29.18556826a100.41378398 100.41378398 0 0 0-29.63556562 70.39250508l1.99284697 18.06419531v241.32736493a20.50704052 20.50704052 0 0 1-21.14989453 21.0856087h-382.4980875a20.50704052 20.50704052 0 0 1-21.21417949-21.0856087V514.56916602l2.05713281-18.06419532a100.47806895 100.47806895 0 0 0-29.69985146-70.39250596 94.49952715 94.49952715 0 0 0-69.94250772-29.18556826c-26.87129385 0-50.01403535 9.70709414-69.42822451 29.18556826a96.42808916 96.42808916 0 0 0-29.24985322 70.84250333c0 27.83557529 9.70709414 51.42831416 29.18556826 70.90678828 19.47847412 19.47847412 42.62121562 29.18556826 69.42822364 29.18556826a20.50704052 20.50704052 0 0 1 21.21418036 21.08560869l-1.0285664 37.28552783v184.94907539c0 11.37851455 4.04997979 21.14989453 12.08565351 29.18556827a41.01408106 41.01408106 0 0 0 30.21413467 12.08565439h495.2546666a41.01408106 41.01408106 0 0 0 30.21413467-12.08565439 39.72837305 39.72837305 0 0 0 12.08565439-29.18556826V655.35417617l-1.02856641-37.22124287a20.50704052 20.50704052 0 0 1 21.14989366-21.08560869c26.87129385 0 50.01403535-9.70709414 69.42822451-29.18556826zM227.09260302 357.58423672c32.91412148 5.39997276 60.42826933 21.34275029 82.54244444 47.82833174 22.17846094 26.48558145 33.23554805 56.82828691 33.23554804 91.02811641v1.928562l-1.0285664 18.12848027v124.7136627h340.32687012V516.49772715L681.07604786 498.49781768v-1.99284698c0-34.90696846 11.37851455-65.57110049 34.1998286-92.05668281 22.82131406-26.48558145 51.3640292-42.42835898 85.56385782-47.76404677-9.38566758-71.67821309-41.39979258-131.84934082-96.1066626-180.51338321C650.09048838 127.57110049 586.51223487 103.20693682 513.93402617 103.20693682c-72.44963789 0-136.02789141 24.29987872-190.73476055 72.89963525A284.33429297 284.33429297 0 0 0 227.09260302 357.71280752z m114.74942608 378.12668027h340.32687012v-52.26402392H341.84202911v52.26402393z" p-id="7158"></path></svg>