<?xml version="1.0" standalone="no"?><!DOCTYPE svg PUBLIC "-//W3C//DTD SVG 1.1//EN" "http://www.w3.org/Graphics/SVG/1.1/DTD/svg11.dtd"><svg t="1648327457528" class="icon" viewBox="0 0 1024 1024" version="1.1" xmlns="http://www.w3.org/2000/svg" p-id="6877" xmlns:xlink="http://www.w3.org/1999/xlink" width="200" height="200"><defs><style type="text/css">@font-face { font-family: feedback-iconfont; src: url("//at.alicdn.com/t/font_1031158_u69w8yhxdu.woff2?t=1630033759944") format("woff2"), url("//at.alicdn.com/t/font_1031158_u69w8yhxdu.woff?t=1630033759944") format("woff"), url("//at.alicdn.com/t/font_1031158_u69w8yhxdu.ttf?t=1630033759944") format("truetype"); }
</style></defs><path d="M930.38195605 736.74126318c0 6.29968535-2.51987432 10.61946914-7.46962647 13.13934346L532.4218536 960.11009492 530.53194853 960.11009492C529.36200654 961.37003164 527.47210146 962 524.95222714 962c-2.51987432 0-4.4097794-0.62996836-5.66971611-1.88990508L517.39260507 960.11009492 126.99212558 749.88060576C122.04237255 747.45072705 119.52249912 743.04094766 119.52249912 736.74126318L119.52249912 286.31378428 119.52249912 284.4238792c0-1.16994112 0.62996836-2.51987432 1.88990507-3.77981103L121.41240419 278.84415781l3.77981103-3.77981104 1.88990508-1.88990507L517.39260507 62.94495254c5.03974776-1.25993672 9.98950078-1.25993672 15.02924853-1e-8l390.40048037 210.22948829 1.88990508 1.88990507 3.77981104 3.77981104 0 1.88990508L930.38195605 284.4238792l0 1.88990508L930.38195605 736.74126318zM149.58099618 727.38173076l360.3419833 195.20023974 0-416.6791664L149.58099618 310.70256523 149.58099618 727.38173076zM695.76368681 387.64871738L337.22161386 194.33838271 166.41015419 286.31378428 524.95222714 479.62411895 695.76368681 387.64871738zM369.17001688 177.4192291L727.62209423 370.72956377l155.78221114-84.5057751L524.95222714 93.00344961 369.17001688 177.4192291zM900.32345897 727.38173076l0-416.67916641L539.98147568 505.90280498l0 416.6791664L900.32345897 727.38173076z" p-id="6878"></path></svg>