<?xml version="1.0" standalone="no"?><!DOCTYPE svg PUBLIC "-//W3C//DTD SVG 1.1//EN" "http://www.w3.org/Graphics/SVG/1.1/DTD/svg11.dtd"><svg t="1648327496915" class="icon" viewBox="0 0 1024 1024" version="1.1" xmlns="http://www.w3.org/2000/svg" p-id="8545" xmlns:xlink="http://www.w3.org/1999/xlink" width="200" height="200"><defs><style type="text/css">@font-face { font-family: feedback-iconfont; src: url("//at.alicdn.com/t/font_1031158_u69w8yhxdu.woff2?t=1630033759944") format("woff2"), url("//at.alicdn.com/t/font_1031158_u69w8yhxdu.woff?t=1630033759944") format("woff"), url("//at.alicdn.com/t/font_1031158_u69w8yhxdu.ttf?t=1630033759944") format("truetype"); }
</style></defs><path d="M675.08906667 68.26666667A68.26666667 68.26666667 0 0 1 728.74666667 94.3616l217.71946666 277.07733333A34.13333333 34.13333333 0 0 1 919.63733333 426.66666667H105.6768a34.13333333 34.13333333 0 0 1-26.5216-55.6032L303.7696 93.57653333A68.26666667 68.26666667 0 0 1 356.864 68.26666667h318.24213333z m0 34.13333333H356.82986667a34.13333333 34.13333333 0 0 0-24.49066667 10.35946667l-2.048 2.304L105.71093333 392.53333333h813.94346667L701.91786667 115.43893333a34.13333333 34.13333333 0 0 0-23.99573334-12.91946666L675.08906667 102.4zM563.2 631.46666667a34.13333333 34.13333333 0 0 1 34.13333333 34.13333333v238.93333333a34.13333333 34.13333333 0 0 1-34.13333333 34.13333334H358.4a34.13333333 34.13333333 0 0 1-34.13333333-34.13333334V665.6a34.13333333 34.13333333 0 0 1 34.13333333-34.13333333h204.8z m0 34.13333333H358.4v238.93333333h204.8V665.6zM750.93333333 477.86666667a34.13333333 34.13333333 0 0 1 34.13333334 34.13333333v85.33333333a34.13333333 34.13333333 0 0 1-34.13333334 34.13333334h-85.33333333a34.13333333 34.13333333 0 0 1-34.13333333-34.13333334v-85.33333333a34.13333333 34.13333333 0 0 1 34.13333333-34.13333333h85.33333333z m0 34.13333333h-85.33333333v85.33333333h85.33333333v-85.33333333z" p-id="8546"></path><path d="M853.33333333 392.53333333a34.13333333 34.13333333 0 0 1 34.13333334 34.13333334v477.86666666a34.13333333 34.13333333 0 0 1-34.13333334 34.13333334H170.66666667a34.13333333 34.13333333 0 0 1-34.13333334-34.13333334V426.66666667a34.13333333 34.13333333 0 0 1 34.13333334-34.13333334h682.66666666z m0 34.13333334H170.66666667v477.86666666h682.66666666V426.66666667z" p-id="8547"></path></svg>