<?xml version="1.0" standalone="no"?><!DOCTYPE svg PUBLIC "-//W3C//DTD SVG 1.1//EN" "http://www.w3.org/Graphics/SVG/1.1/DTD/svg11.dtd"><svg t="1648327407418" class="icon" viewBox="0 0 1075 1024" version="1.1" xmlns="http://www.w3.org/2000/svg" p-id="5241" xmlns:xlink="http://www.w3.org/1999/xlink" width="209.9609375" height="200"><defs><style type="text/css">@font-face { font-family: feedback-iconfont; src: url("//at.alicdn.com/t/font_1031158_u69w8yhxdu.woff2?t=1630033759944") format("woff2"), url("//at.alicdn.com/t/font_1031158_u69w8yhxdu.woff?t=1630033759944") format("woff"), url("//at.alicdn.com/t/font_1031158_u69w8yhxdu.ttf?t=1630033759944") format("truetype"); }
</style></defs><path d="M856.3765625 160.6625V116.61875a26.578125 26.578125 0 0 0-26.578125-26.3671875H245.1640625c-14.68125 0-26.578125 11.8125-26.578125 26.325v43.875h-5.1890625C145.475 160.49375 90.125 215.3796875 90.125 282.753125v528.609375c0 67.4578125 55.3078125 122.259375 123.271875 122.259375h639.2671875c67.921875 0 123.1875-54.84375 123.1875-122.2171875V282.753125c0-66.234375-53.2828125-120.1078125-119.559375-122.090625h0.0421875z m81.421875 122.0484375v159.0046875h-81.421875V196.690625c36.9140625 1.9828125 81.421875 29.109375 81.421875 86.0625zM252.2515625 123.621875h570.628125v318.09375H252.209375V123.621875z m-33.6234375 78.046875v240.0046875H135.434375a26.15625 26.15625 0 0 0-4.4296875 0.421875V282.66875c0-52.0171875 43.7484375-81.084375 82.434375-81.084375l5.1890625 0.0421875z m634.078125 695.5453125H213.4390625c-38.390625 0.16875-84.375-47.25-84.6703125-85.8515625V481.9625c1.3921875 0.253125 2.86875 0 4.4296875 0H938.515625v329.4c0 38.30625-47.1234375 85.8515625-85.809375 85.8515625z" p-id="5242"></path><path d="M595.5734375 276.25625a16.453125 16.453125 0 0 0 16.4953125-16.3265625 16.453125 16.453125 0 0 0-16.453125-16.3265625h-34.846875l33.0328125-32.7796875a16.2421875 16.2421875 0 0 0 0-23.11875 16.5375 16.5375 0 0 0-23.2875 0l-40.8375 40.5-40.8375-40.5a16.4953125 16.4953125 0 0 0-28.1390625 11.6015625c0 4.3453125 1.7296875 8.521875 4.8515625 11.559375l32.990625 32.7375h-34.7625a16.453125 16.453125 0 0 0-16.453125 16.3265625 16.453125 16.453125 0 0 0 16.453125 16.3265625h49.44375v32.653125H463.7796875a16.36875 16.36875 0 1 0 0 32.7375h49.44375v43.5796875a16.453125 16.453125 0 0 0 16.453125 16.284375 16.453125 16.453125 0 0 0 16.453125-16.3265625V341.646875h49.44375a16.453125 16.453125 0 0 0 16.4953125-16.3265625 16.4953125 16.4953125 0 0 0-16.453125-16.4109375H546.171875v-32.653125h49.4015625z" p-id="5243"></path></svg>