<?xml version="1.0" standalone="no"?><!DOCTYPE svg PUBLIC "-//W3C//DTD SVG 1.1//EN" "http://www.w3.org/Graphics/SVG/1.1/DTD/svg11.dtd"><svg t="1648327348813" class="icon" viewBox="0 0 1024 1024" version="1.1" xmlns="http://www.w3.org/2000/svg" p-id="3477" xmlns:xlink="http://www.w3.org/1999/xlink" width="200" height="200"><defs><style type="text/css">@font-face { font-family: feedback-iconfont; src: url("//at.alicdn.com/t/font_1031158_u69w8yhxdu.woff2?t=1630033759944") format("woff2"), url("//at.alicdn.com/t/font_1031158_u69w8yhxdu.woff?t=1630033759944") format("woff"), url("//at.alicdn.com/t/font_1031158_u69w8yhxdu.ttf?t=1630033759944") format("truetype"); }
</style></defs><path d="M448 64H128c-17.7 0-32 14.3-32 32l32 672c0 17.7 14.3 32 32 32v148c0 6.6 5.4 12 12 12h232c6.6 0 12-5.4 12-12V800c17.7 0 32-14.3 32-32l32-672c0-17.7-14.3-32-32-32z m-64 864H192V800h192v128z m32-161.5v1.5H160v-1.5L128 96h320l-1.5 32H224v32h220.9L416 766.5zM192 160h-32v-32h32v32z m672 480c0-35.3-64.5-64-144-64s-144 28.7-144 64c-35.2 0-64 28.8-64 64v224c0 17.6 14.4 32 32 32h352c17.6 0 32-14.4 32-32V704c0-35.2-28.8-64-64-64z m-227.1-18.4C659.5 612.8 689 608 720 608s60.5 4.8 83.1 13.6c19.7 7.7 27.1 15.6 28.7 18.4H608.2c1.6-2.8 9-10.7 28.7-18.4z m-83.5 59.8c6.1-6.1 14.1-9.4 22.6-9.4h288c8.5 0 16.5 3.3 22.6 9.4 6.1 6.1 9.4 14.1 9.4 22.6v80H544v-80c0-8.5 3.3-16.5 9.4-22.6zM895.9 928H544l-0.1-0.1V816h352v112c0.1 0 0.1 0 0 0z" p-id="3478"></path></svg>