<?xml version="1.0" standalone="no"?><!DOCTYPE svg PUBLIC "-//W3C//DTD SVG 1.1//EN" "http://www.w3.org/Graphics/SVG/1.1/DTD/svg11.dtd"><svg t="1648327487291" class="icon" viewBox="0 0 1024 1024" version="1.1" xmlns="http://www.w3.org/2000/svg" p-id="8124" xmlns:xlink="http://www.w3.org/1999/xlink" width="200" height="200"><defs><style type="text/css">@font-face { font-family: feedback-iconfont; src: url("//at.alicdn.com/t/font_1031158_u69w8yhxdu.woff2?t=1630033759944") format("woff2"), url("//at.alicdn.com/t/font_1031158_u69w8yhxdu.woff?t=1630033759944") format("woff"), url("//at.alicdn.com/t/font_1031158_u69w8yhxdu.ttf?t=1630033759944") format("truetype"); }
</style></defs><path d="M509.1875 700.4375c-99.140625 0-198.984375-10.546875-297.421875-30.9375-6.328125-1.40625-11.25-7.03125-11.25-14.0625V369.265625c0-7.734375 6.328125-14.0625 14.0625-14.0625s14.0625 6.328125 14.0625 14.0625v274.921875c186.328125 37.265625 374.765625 37.265625 560.390625 0V369.265625c0-7.734375 6.328125-14.0625 14.0625-14.0625s14.0625 6.328125 14.0625 14.0625v286.875c0 6.328125-4.921875 12.65625-11.25 14.0625-98.4375 19.6875-197.578125 30.234375-296.71875 30.234375z" p-id="8125"></path><path d="M509.1875 700.4375c-99.140625 0-198.984375-10.546875-297.421875-30.9375-6.328125-1.40625-11.25-7.03125-11.25-14.0625V369.265625c0-7.734375 6.328125-14.0625 14.0625-14.0625s14.0625 6.328125 14.0625 14.0625v274.921875c186.328125 37.265625 374.765625 37.265625 560.390625 0V369.265625c0-7.734375 6.328125-14.0625 14.0625-14.0625s14.0625 6.328125 14.0625 14.0625v286.875c0 6.328125-4.921875 12.65625-11.25 14.0625-98.4375 19.6875-197.578125 30.234375-296.71875 30.234375z" p-id="8126"></path><path d="M509.1875 625.203125c-99.140625 0-197.578125-9.84375-296.015625-30.234375-3.515625-0.703125-6.328125-4.21875-5.625-8.4375 0.703125-3.515625 4.21875-6.328125 8.4375-5.625 194.0625 40.078125 391.640625 40.078125 585.703125 0 3.515625-0.703125 7.734375 1.40625 8.4375 5.625 0.703125 3.515625-1.40625 7.734375-5.625 8.4375-97.734375 19.6875-196.875 30.234375-295.3125 30.234375zM509.1875 451.53125c-1.40625 0-2.109375 0-3.515625-0.703125L76.0625 350.984375c-6.328125-1.40625-10.546875-7.03125-10.546875-13.359375s4.21875-11.953125 10.546875-13.359375L505.671875 223.71875c2.109375-0.703125 4.21875-0.703125 6.328125 0l429.609375 100.546875c6.328125 1.40625 10.546875 7.03125 10.546875 13.359375s-4.21875 11.953125-10.546875 13.359375L512 451.53125h-2.8125zM141.453125 336.921875l367.734375 86.484375 367.734375-86.484375-367.734375-85.78125-367.734375 85.78125z" p-id="8127"></path><path d="M895.203125 470.515625c-7.734375 0-14.0625-6.328125-14.0625-14.0625V341.84375c0-7.734375 6.328125-14.0625 14.0625-14.0625s14.0625 6.328125 14.0625 14.0625v114.609375c0 7.734375-6.328125 14.0625-14.0625 14.0625z" p-id="8128"></path><path d="M895.203125 550.671875c-28.828125 0-52.734375-23.90625-52.734375-52.734375s23.203125-52.734375 52.734375-52.734375 52.734375 23.90625 52.734375 52.734375c-0.703125 29.53125-23.90625 52.734375-52.734375 52.734375z m0-77.34375c-13.359375 0-24.609375 11.25-24.609375 24.609375s11.25 24.609375 24.609375 24.609375 24.609375-11.25 24.609375-24.609375c-0.703125-13.359375-11.25-24.609375-24.609375-24.609375z" p-id="8129"></path><path d="M944.421875 801.6875h-99.140625c-4.21875 0-8.4375-2.109375-10.546875-4.921875s-3.515625-7.734375-2.8125-11.25l45.703125-251.015625c1.40625-7.03125 7.734375-11.953125 15.46875-11.25h4.921875c7.03125-0.703125 14.0625 4.21875 15.46875 11.25l45.703125 251.015625c0.703125 4.21875-0.703125 8.4375-2.8125 11.25s-7.734375 4.921875-11.953125 4.921875z m-82.265625-28.125h65.390625l-33.046875-180-32.34375 180z" p-id="8130"></path></svg>