<?xml version="1.0" standalone="no"?><!DOCTYPE svg PUBLIC "-//W3C//DTD SVG 1.1//EN" "http://www.w3.org/Graphics/SVG/1.1/DTD/svg11.dtd"><svg t="1636703312911" class="icon" viewBox="0 0 1024 1024" version="1.1" xmlns="http://www.w3.org/2000/svg" p-id="99811" xmlns:xlink="http://www.w3.org/1999/xlink" width="200" height="200"><defs><style type="text/css"></style></defs><path d="M156.012751 846.38065l62.013379 0c-0.467651 0 4.146437 3.197832 4.146437 4.754281l0 94.504374c0 8.03807 6.481621 14.519692 14.492062 14.519692 8.009418 0 14.491039-6.481621 14.491039-14.519692l0-94.504374c0-1.556449-5.476735-4.754281-5.915733-4.754281l61.984726 0c8.010441 0 16.388249-6.114255 16.388249-14.124695L323.61291 657.992025l86.947258 0 0 23.038716c0 8.010441 2.067079 20.436448 10.076496 20.436448l94.5187 0c80.948637 0 146.796344-71.211878 146.796344-152.153352 0-80.947614-65.847707-152.172795-146.796344-152.172795l-94.5187 0c-8.009418 0-10.076496 11.250228-10.076496 19.260669l0 24.213471L307.224662 440.615183c-144.177704 0-172.000376 74.763774-172.000376 119.893624l0 271.748171C135.224286 840.266395 148.003334 846.38065 156.012751 846.38065zM439.54327 426.124144l75.611072 0c64.958454 0 117.814266 58.219983 117.814266 123.189693 0 64.950268-52.855812 123.170251-117.814266 123.170251l-75.611072 0 0-29.237905 0-189.045587L439.54327 426.124144zM410.559145 629.009947l-86.947258 0L323.611887 469.611587l86.947258 0L410.559145 629.009947zM164.207387 560.507784c0-57.597813 43.474141-88.334861 130.422422-91.533716l0 174.271092 0 174.152389L164.207387 817.397548 164.207387 560.507784zM534.047644 353.681228l75.613118 0c8.010441 0 18.270109-4.867868 18.270109-12.863982l0-16.133446 86.949304 0 0 167.330006c0 8.009418 0.184195 21.057595 8.192589 21.057595l62.000076 0c-0.467651 0 2.264577-3.721765 2.264577-2.165316l0 434.733219c0 8.03807 6.481621 14.519692 14.490016 14.519692 8.010441 0 14.492062-6.481621 14.492062-14.519692L816.319495 510.906086c0-1.556449-3.595898 2.165316-4.047176 2.165316l62.012356 0c8.010441 0 14.492062-13.048177 14.492062-21.057595l0-271.76966c0-45.101197-21.525246-127.422088-165.703973-127.422088l-95.141894 0L627.930871 76.165704c0-7.995091-10.258645-12.325723-18.270109-12.325723l-75.613118 0c-80.947614 0-146.795321 63.965847-146.795321 144.913461C387.252323 289.701055 453.10003 353.681228 534.047644 353.681228zM859.792613 220.244146l0 263.844154L743.86123 484.0883 743.86123 302.989709 743.86123 128.767735C816.318472 131.937938 859.792613 162.674986 859.792613 220.244146zM714.879152 121.80516l0 173.896562-86.949304 0L627.929848 121.80516 714.879152 121.80516zM534.047644 92.823082l64.900126 0 0 21.156856 0 189.010795 0 21.694091-64.900126 0c-64.955384 0-117.812219-50.959625-117.812219-115.931383C416.234401 143.782707 469.092259 92.823082 534.047644 92.823082z" p-id="99812"></path></svg>