<?xml version="1.0" standalone="no"?><!DOCTYPE svg PUBLIC "-//W3C//DTD SVG 1.1//EN" "http://www.w3.org/Graphics/SVG/1.1/DTD/svg11.dtd"><svg t="1648327380869" class="icon" viewBox="0 0 1024 1024" version="1.1" xmlns="http://www.w3.org/2000/svg" p-id="4431" xmlns:xlink="http://www.w3.org/1999/xlink" width="200" height="200"><defs><style type="text/css">@font-face { font-family: feedback-iconfont; src: url("//at.alicdn.com/t/font_1031158_u69w8yhxdu.woff2?t=1630033759944") format("woff2"), url("//at.alicdn.com/t/font_1031158_u69w8yhxdu.woff?t=1630033759944") format("woff"), url("//at.alicdn.com/t/font_1031158_u69w8yhxdu.ttf?t=1630033759944") format("truetype"); }
</style></defs><path d="M749.44 172.8H704V139.306667A53.973333 53.973333 0 0 0 650.026667 85.333333h-277.333334A54.186667 54.186667 0 0 0 320 139.306667V172.8h-46.08A82.346667 82.346667 0 0 0 192 256v535.466667a82.133333 82.133333 0 0 0 80.213333 82.133333 55.466667 55.466667 0 0 0-1.28 11.946667 54.186667 54.186667 0 0 0 108.373334 0 53.546667 53.546667 0 0 0-1.493334-11.733334H644.266667a53.546667 53.546667 0 0 0-1.28 11.733334 54.186667 54.186667 0 0 0 108.373333 0 51.84 51.84 0 0 0-1.493333-11.733334A82.56 82.56 0 0 0 832 790.4V256a82.346667 82.346667 0 0 0-82.56-83.2zM362.666667 139.306667a11.306667 11.306667 0 0 1 10.88-11.306667h277.333333a11.306667 11.306667 0 0 1 11.306667 11.306667V172.8H362.666667zM324.693333 896a11.52 11.52 0 1 1 11.52-11.52 11.52 11.52 0 0 1-11.52 11.52z m372.48 0a11.52 11.52 0 1 1 11.52-11.52 11.52 11.52 0 0 1-11.52 11.52z m91.946667-106.666667a39.68 39.68 0 0 1-39.68 39.68H273.92A39.68 39.68 0 0 1 234.666667 790.4V256a39.68 39.68 0 0 1 39.68-39.466667h475.093333A39.68 39.68 0 0 1 789.333333 256z" p-id="4432"></path><path d="M405.333333 337.066667a21.333333 21.333333 0 0 0-21.333333 21.333333v328.746667a21.333333 21.333333 0 0 0 42.666667 0V358.4a21.333333 21.333333 0 0 0-21.333334-21.333333zM618.666667 337.066667a21.333333 21.333333 0 0 0-21.333334 21.333333v328.746667a21.333333 21.333333 0 0 0 42.666667 0V358.4a21.333333 21.333333 0 0 0-21.333333-21.333333z" p-id="4433"></path></svg>