<?xml version="1.0" standalone="no"?><!DOCTYPE svg PUBLIC "-//W3C//DTD SVG 1.1//EN" "http://www.w3.org/Graphics/SVG/1.1/DTD/svg11.dtd"><svg t="1648327395202" class="icon" viewBox="0 0 1024 1024" version="1.1" xmlns="http://www.w3.org/2000/svg" p-id="4974" xmlns:xlink="http://www.w3.org/1999/xlink" width="200" height="200"><defs><style type="text/css">@font-face { font-family: feedback-iconfont; src: url("//at.alicdn.com/t/font_1031158_u69w8yhxdu.woff2?t=1630033759944") format("woff2"), url("//at.alicdn.com/t/font_1031158_u69w8yhxdu.woff?t=1630033759944") format("woff"), url("//at.alicdn.com/t/font_1031158_u69w8yhxdu.ttf?t=1630033759944") format("truetype"); }
</style></defs><path d="M624.50202324 158.4721918c-69.86643047 0-128.56513271 29.35069981-128.56513272 72.31816846 0 42.96746778 58.69870224 72.31816846 128.56513272 72.31816845 69.86463135 0 128.56243449-29.34980068 128.56243447-72.31816845C753.06535771 187.82289248 694.36665547 158.4721918 624.50202324 158.4721918zM624.50202324 270.96702031c-54.39242197 0-96.42272519-21.01605117-96.42272519-40.17666005 0-19.15970977 42.03030323-40.17666006 96.42272519-40.17666006 54.39062285 0 96.42272519 21.01695029 96.4227252 40.17666006C720.92474932 249.95096914 678.89264697 270.96702031 624.50202324 270.96702031z" p-id="4975"></path><path d="M624.50202324 62.04946661c-175.52229609 0-321.38090332 68.3383667-336.215446 161.13565019l-210.18479501-0.43080821c-12.24249961 0-19.98894727 13.14278877-14.05926739 23.85362725 0.84092959 1.51996905 2.45083799 4.47716425 4.71910079 8.72318585 3.79992393 7.1096792 8.0387499 15.21048691 12.60585351 24.15312421 13.05554854 25.5597706 26.11199619 52.70246807 38.28524239 80.21931152 10.09565508 22.82202685 19.13722471 44.91644677 26.85848993 65.90911377 18.04536563 49.06173604 28.01420596 89.77713135 28.01420596 118.55222139 0 28.74271201-10.08846035 69.6838544-28.33528886 119.12963028-7.6511127 20.73813925-16.58385615 42.55464815-26.54100528 65.08707099-12.17504531 27.55821533-25.23149297 54.75757412-38.28973974 80.38479902-4.56890185 8.9660206-8.80682871 17.08931338-12.60675264 24.22327676-2.26916191 4.25951191-3.87907031 7.2266001-4.72269814 8.75106651-5.90899394 10.71083847 1.83835372 23.83563955 14.07185947 23.83563954l224.9887579 0c5.52495411 0 10.39695117-2.78810948 13.29028946-7.03233193 52.90842832 62.07771094 171.54159521 103.45415801 308.12029453 103.45415801 185.24650253 0 337.48088818-76.11539414 337.48088819-176.77514619l-1e-8-16.07120332L961.9820123 254.89581699l1e-8-11.11106689 0-4.95923731C961.98381055 138.16575987 809.74852666 62.04946661 624.50202324 62.04946661zM104.82176709 833.43756553c1.67376533-3.232408 3.40239287-6.59342989 5.17778965-10.07856651 13.30917627-26.12278916 26.6156543-53.84469287 39.0497247-81.98571357 10.21167685-23.1134291 19.39534981-45.54152315 27.29559375-66.9488089 19.45650849-52.72405312 30.32204151-96.82205449 30.32204151-130.25778485 0-33.44022773-10.74141738-77.31967763-29.98746826-129.64709883-7.97399385-21.68070029-17.27278945-44.40289482-27.63196524-67.81672002-12.43406953-28.10774268-25.74504492-55.7765833-39.05512031-81.83731465-4.66153945-9.12431338-1.21507646-2.63341494-5.10493887-9.913079l182.07345411 0.37954247 0.05846044 0.19426816 0 513.62736066 0 16.07120332c0 16.83658477 4.26131104 32.98963271 12.22181366 48.2118126L104.82176709 833.43666553zM929.84410127 769.15364961l0 16.07120332c0 76.85109492-135.56688574 144.63453779-305.3411789 144.6345378s-305.34117891-67.78344287-305.34117891-144.6345378l0-16.07120332L319.16174434 315.31865029l0.01349121-0.01439032c54.19905293 60.31760449 171.08470459 100.29729815 305.3276877 100.29729813 134.25287695 0 251.14752158-39.98509013 305.3411789-100.31168847L929.84410127 769.15364961zM929.79733379 240.50647286l-0.88140236 9.29699647c-12.14896289 72.21383877-142.77369902 133.65748037-304.41300819 133.65748038-169.77429316 0-305.34117891-67.78524199-305.34117891-144.63543692 0-76.85109492 135.56688574-144.63453779 305.34117891-144.63453779s305.34117891 67.78344287 305.34117891 144.63453779C929.84410127 239.38673223 929.81082412 239.94615254 929.79733379 240.50647286z" p-id="4976"></path></svg>