<?xml version="1.0" standalone="no"?><!DOCTYPE svg PUBLIC "-//W3C//DTD SVG 1.1//EN" "http://www.w3.org/Graphics/SVG/1.1/DTD/svg11.dtd"><svg t="1648327427898" class="icon" viewBox="0 0 1024 1024" version="1.1" xmlns="http://www.w3.org/2000/svg" p-id="5786" xmlns:xlink="http://www.w3.org/1999/xlink" width="200" height="200"><defs><style type="text/css">@font-face { font-family: feedback-iconfont; src: url("//at.alicdn.com/t/font_1031158_u69w8yhxdu.woff2?t=1630033759944") format("woff2"), url("//at.alicdn.com/t/font_1031158_u69w8yhxdu.woff?t=1630033759944") format("woff"), url("//at.alicdn.com/t/font_1031158_u69w8yhxdu.ttf?t=1630033759944") format("truetype"); }
</style></defs><path d="M484.5464 522.8918c17.937-9.1242 34.2468-21.024 48.3606-35.1378 34.5978-34.5996 56.0034-82.4688 56.0034-135.3618 0-52.8912-21.4074-100.7604-56.0034-135.3582-34.3368-34.3368-81.657-55.5786-133.803-55.5786-52.1442 0-99.4608 21.2418-133.7958 55.5786-34.5978 34.5978-56.0034 82.4652-56.0034 135.3582 0 52.893 21.4056 100.7622 56.0034 135.3618 14.1156 14.1138 30.4164 26.0028 48.3516 35.1324-58.5486 15.363-110.9214 46.1394-152.514 87.7392C99.8882 671.876 62 756.5624 62 850.1498c0 1.0872 0.0738 2.1654 0.2178 3.2112 1.152 11.43 10.4436 20.25 21.5658 20.0682 11.1888-0.1818 20.2194-9.4014 20.9646-20.952l0-0.0216 0.0054-0.1278c0.0684-0.7218 0.1062-1.4436 0.1062-2.1798 0-80.775 32.7726-153.9378 85.7628-206.9226 53.2458-53.253 126.954-86.193 208.4796-86.193 81.5274 0 155.2392 32.9472 208.4868 86.193 52.9902 52.9884 85.7592 126.1476 85.7592 206.9226 0 0.6372 0.0252 1.269 0.0774 1.8954 0.5238 11.6316 9.504 21.0618 20.745 21.3858 11.1438 0.324 20.52-8.406 21.7926-19.845l0.0378-0.2844c0.1422-1.0296 0.2124-2.0826 0.2124-3.15 0-93.5874-37.8936-178.2774-99.1458-239.526C595.4678 569.024 543.0932 538.2548 484.5464 522.8918L484.5464 522.8918zM294.7832 455.1488c-26.3268-26.3268-42.6222-62.667-42.6222-102.7548 0-40.086 16.2954-76.4262 42.6222-102.753 26.5878-26.5932 63.4788-43.0506 104.3172-43.0506 40.8456 0 77.7348 16.4592 104.328 43.0506 26.325 26.325 42.6168 62.667 42.6168 102.753 0 40.0878-16.2918 76.428-42.6168 102.7548-26.5932 26.5878-63.4824 43.0506-104.328 43.0506C358.262 498.1976 321.371 481.7384 294.7832 455.1488L294.7832 455.1488zM861.2378 611.0828c-37.6416-37.791-84.2274-66.6936-136.2906-83.2662 11.6406-7.4988 22.4136-16.2288 32.1318-26.0172 34.3332-34.5834 55.5516-82.2348 55.5516-134.8272 0-52.5816-21.2184-100.233-55.5516-134.8164-34.029-34.281-81.0234-55.6308-132.9102-56.0052-11.781-0.0432-21.384 9.9774-21.4308 22.3848-0.0414 12.411 9.4842 22.5216 21.267 22.5666 40.5432 0.2952 77.1786 16.8732 103.5936 43.4952 26.0622 26.2494 42.1704 62.4348 42.1704 102.3768 0 39.9528-16.1064 76.1346-42.1704 102.3894-23.7582 23.9436-55.8 39.7692-91.5066 42.9174-3.9834-0.1494-7.983-0.2448-12.0078-0.2628-11.781 0-21.3462 10.0692-21.3462 22.4784l0.0108 0.342 0 0.2376-0.0108 0.3402c0.0432 12.4128 9.6462 22.4334 21.4308 22.3848 4.248-0.0252 8.4618-0.1998 12.6378-0.5112 76.086 3.5352 144.6408 35.8794 194.9562 86.3964 52.7166 52.9218 85.3074 125.9064 85.3074 206.4636 0 12.456 9.594 22.5648 21.4272 22.5648 11.8368 0 21.4308-10.1088 21.4308-22.5648C959.9336 756.8126 922.2308 672.3116 861.2378 611.0828L861.2378 611.0828z" p-id="5787"></path></svg>