<?xml version="1.0" standalone="no"?><!DOCTYPE svg PUBLIC "-//W3C//DTD SVG 1.1//EN" "http://www.w3.org/Graphics/SVG/1.1/DTD/svg11.dtd"><svg t="1648327411135" class="icon" viewBox="0 0 1024 1024" version="1.1" xmlns="http://www.w3.org/2000/svg" p-id="5375" xmlns:xlink="http://www.w3.org/1999/xlink" width="200" height="200"><defs><style type="text/css">@font-face { font-family: feedback-iconfont; src: url("//at.alicdn.com/t/font_1031158_u69w8yhxdu.woff2?t=1630033759944") format("woff2"), url("//at.alicdn.com/t/font_1031158_u69w8yhxdu.woff?t=1630033759944") format("woff"), url("//at.alicdn.com/t/font_1031158_u69w8yhxdu.ttf?t=1630033759944") format("truetype"); }
</style></defs><path d="M866.20999999 228.68c19.44 0 35.37 6.21 47.88 18.72C926.59999999 259.91 932.80999999 275.84 932.80999999 295.37l0 116.64c0 11.16-5.58 16.65-16.65 16.65L899.50999999 428.66l0 466.65c0 19.44-6.21 35.37-18.72 47.88C868.27999999 955.7 852.25999999 962 832.81999999 962L199.48999999 962c-19.44 0-35.37-6.3-47.88-18.72C139.09999999 930.77 132.79999999 914.84 132.79999999 895.31L132.79999999 428.66 116.14999999 428.66C105.07999999 428.66 99.49999999 423.17 99.49999999 412.01L99.49999999 295.37C99.49999999 275.84 105.70999999 259.91 118.21999999 247.4c12.51-12.51 28.44-18.72 47.88-18.72l58.32 0C207.85999999 209.24 199.48999999 187.01 199.48999999 161.99c0-27.81 9.72-51.39 29.16-70.83C248.08999999 71.72 271.75999999 62 299.47999999 62c27.81 0 51.39 9.72 70.83 29.16l145.8 131.22 145.8-131.22C681.43999999 71.72 705.01999999 62 732.82999999 62c27.81 0 51.39 9.72 70.83 29.16C823.09999999 110.69 832.81999999 134.18 832.81999999 161.99c0 25.02-8.37 47.25-25.02 66.69L866.20999999 228.68zM166.18999999 261.98c-22.23 0-33.3 11.16-33.3 33.3l0 99.99 366.66 0L499.54999999 261.98 166.18999999 261.98zM166.18999999 895.31c0 22.23 11.07 33.3 33.3 33.3l299.97 0L499.45999999 428.66 166.18999999 428.66 166.18999999 895.31zM347.44999999 114.11C334.93999999 101.6 318.91999999 95.3 299.47999999 95.3c-19.44 0-35.37 6.21-47.88 18.72C239.08999999 126.62 232.78999999 142.55 232.78999999 161.99c0 19.44 6.21 35.37 18.72 47.88 12.51 12.51 28.44 18.72 47.88 18.72l172.89 0-125.01-112.5L347.26999999 114.11zM899.50999999 295.37c0-22.23-11.07-33.3-33.3-33.3L532.84999999 262.07l0 133.29 366.66 0L899.50999999 295.37zM866.20999999 428.66L532.84999999 428.66 532.84999999 928.7l299.97 0c22.23 0 33.3-11.07 33.3-33.3L866.11999999 428.66zM732.82999999 228.68c19.44 0 35.37-6.3 47.88-18.72 12.51-12.51 18.72-28.44 18.72-47.88 0-19.44-6.21-35.46-18.72-47.88C768.28999999 101.6 752.26999999 95.3 732.82999999 95.3c-19.44 0-35.37 6.21-47.88 18.72l0 2.07-125.01 112.5L732.82999999 228.59z" p-id="5376"></path></svg>