<?xml version="1.0" standalone="no"?><!DOCTYPE svg PUBLIC "-//W3C//DTD SVG 1.1//EN" "http://www.w3.org/Graphics/SVG/1.1/DTD/svg11.dtd"><svg t="1648327440432" class="icon" viewBox="0 0 1024 1024" version="1.1" xmlns="http://www.w3.org/2000/svg" p-id="6189" xmlns:xlink="http://www.w3.org/1999/xlink" width="200" height="200"><defs><style type="text/css">@font-face { font-family: feedback-iconfont; src: url("//at.alicdn.com/t/font_1031158_u69w8yhxdu.woff2?t=1630033759944") format("woff2"), url("//at.alicdn.com/t/font_1031158_u69w8yhxdu.woff?t=1630033759944") format("woff"), url("//at.alicdn.com/t/font_1031158_u69w8yhxdu.ttf?t=1630033759944") format("truetype"); }
</style></defs><path d="M717.16520619 557.77117411l8.32203207-22.88558648c12.4830481-33.28812714 18.72457159-70.73727033 18.72457159-108.18641351 0-176.84317412-143.55504811-320.39822222-320.39822222-320.39822222-29.12711111 0-58.25422222 4.16101603-85.30082589 12.4830481-6.24152348 2.08050745-12.4830481 8.32203207-14.56355555 14.56355556-2.08050745 6.24152348 0 14.56355556 6.24152348 20.80507904l183.08469874 183.08469873-178.92368271 178.9236827-183.08469759-183.08469874c-6.24152348-6.24152348-12.4830481-8.32203207-20.80508018-6.24152348-6.24152348 2.08050745-12.4830481 8.32203207-14.56355556 14.56355556-8.32203207 27.04660366-12.4830481 56.17371477-12.48304697 85.30082475 0 176.84317412 143.55504811 320.39822222 320.39822223 320.39822221 37.44914318 0 72.81777778-6.24152348 108.18641237-18.72457045l24.96609508-8.32203207 189.32622222 158.11860253c20.80507904 20.80507904 49.93219015 33.28812714 81.13980984 33.28812714s58.25422222-12.4830481 81.13980986-33.28812714c43.69066667-43.69066667 43.69066667-116.50844444-2.08050859-162.27961856l-189.32622222-158.11860367z m158.11860366 289.19060367c-27.04660366 27.04660366-72.81777778 29.12711111-104.02539748-2.08050745l-191.40672966-158.11860366c-6.24152348-6.24152348-14.56355556-10.40253952-24.96609508-10.40253952-4.16101603 0-8.32203207 0-12.48304811 2.08050744l-27.04660252 10.40253953c-29.12711111 10.40253952-60.33472967 16.644063-93.62285796 16.64406413-153.95758763 0-278.788063-124.83047651-278.788063-278.78806413 0-12.4830481 0-24.96609507 2.08050744-37.44914205l160.19911112 160.19911111c12.4830481 12.4830481 37.44914318 12.4830481 49.93219129 0l187.24571363-187.24571477c6.24152348-6.24152348 10.40253952-16.644063 10.40253952-24.96609508 0-8.32203207-4.16101603-18.72457159-10.40253952-24.96609508L386.36444444 152.07212714c12.4830481-2.08050745 24.96609507-2.08050745 37.44914319-2.08050858 153.95758763 0 278.788063 124.83047651 278.788063 278.78806414 0 31.20761856-6.24152348 62.41523826-16.644063 93.62285682l-10.40253952 27.04660366c-4.16101603 12.4830481-2.08050745 27.04660366 10.40253952 37.44914204l191.40672967 158.11860367c27.04660366 27.04660366 27.04660366 72.81777778-2.08050745 101.94488888z" p-id="6190"></path></svg>