<?xml version="1.0" standalone="no"?><!DOCTYPE svg PUBLIC "-//W3C//DTD SVG 1.1//EN" "http://www.w3.org/Graphics/SVG/1.1/DTD/svg11.dtd"><svg t="1636703426169" class="icon" viewBox="0 0 1024 1024" version="1.1" xmlns="http://www.w3.org/2000/svg" p-id="103250" xmlns:xlink="http://www.w3.org/1999/xlink" width="200" height="200"><defs><style type="text/css"></style></defs><path d="M417.03 787.85h-9.04V353.73c0-25.16-14.87-46.76-36.18-56.96v-160.1c0-9.93-5.42-19.06-14.14-23.81L158.7 4.32c-8.39-4.61-18.58-4.38-26.84 0.48a27.148 27.148 0 0 0-13.28 23.33v268.63c-21.31 10.2-36.18 31.8-36.18 56.96v434.12h-9.04c-34.91 0-63.31 28.4-63.31 63.31v108.53c0 34.91 28.4 63.31 63.31 63.31h343.68c34.91 0 63.31-28.4 63.31-63.31V851.16c-0.01-34.91-28.41-63.31-63.32-63.31zM172.84 73.83l144.71 78.94v137.64H172.84V73.83z m-36.18 279.9c0-4.98 4.05-9.04 9.04-9.04h198.97c4.99 0 9.04 4.06 9.04 9.04v434.12H136.66V353.73z m289.42 605.96c0 4.91-4.14 9.04-9.04 9.04H73.35c-4.9 0-9.04-4.13-9.04-9.04V851.16c0-4.91 4.14-9.04 9.04-9.04h343.68c4.9 0 9.04 4.13 9.04 9.04v108.53zM1011.61 179.91C1008.37 172.61 929.64 1 715.49 1c-232.02 0-310.96 171.61-314.2 178.91a27.155 27.155 0 0 0 3.6 27.98l210.04 262.55-53.02 477.21a27.15 27.15 0 0 0 11.19 25.08c29.09 20.77 82.28 44.96 141.16 44.96 41.71 0 86.26-12.14 127.14-46.19a27.155 27.155 0 0 0 9.69-22.84l-35.44-478.41 193.06-263.27a27.128 27.128 0 0 0 2.9-27.07zM617.73 936.66l41.68-375.16h108.58l27.9 376.56c-70.58 49.33-147.86 15.61-178.16-1.4z m148.24-490.44a27.11 27.11 0 0 0-5.18 18.04l3.18 42.98h-98.53l4.66-41.97c0.79-7.15-1.28-14.33-5.78-19.96l-205.8-257.25c22.38-36.58 96.51-132.78 256.97-132.78 147.75 0 218.18 96.89 239.43 133.28L765.97 446.22z" p-id="103251"></path></svg>