<?xml version="1.0" standalone="no"?><!DOCTYPE svg PUBLIC "-//W3C//DTD SVG 1.1//EN" "http://www.w3.org/Graphics/SVG/1.1/DTD/svg11.dtd"><svg t="1648327460339" class="icon" viewBox="0 0 1024 1024" version="1.1" xmlns="http://www.w3.org/2000/svg" p-id="7014" xmlns:xlink="http://www.w3.org/1999/xlink" width="200" height="200"><defs><style type="text/css">@font-face { font-family: feedback-iconfont; src: url("//at.alicdn.com/t/font_1031158_u69w8yhxdu.woff2?t=1630033759944") format("woff2"), url("//at.alicdn.com/t/font_1031158_u69w8yhxdu.woff?t=1630033759944") format("woff"), url("//at.alicdn.com/t/font_1031158_u69w8yhxdu.ttf?t=1630033759944") format("truetype"); }
</style></defs><path d="M676.36999971 675.95000029c-22.92000029-22.16999971-67.77-59.33999971-110.16-59.37000029-14.15999971 0-27.24000029 4.07999971-38.00999971 11.85000029l-27.02999971 19.55999971c-42.32999971-9-85.74000029-45.9-116.61000029-99.38999971-30.93000029-53.48999971-41.19000029-109.50000029-27.87000029-150.66l30.44999971-13.68c38.81999971-17.46 51.41999971-67.61999971 35.61000029-141.36000029-12.75000029-59.33999971-56.04000029-171.51000029-128.97-171.51000029-7.02 0-14.10000029 1.10999971-20.81999971 3.30000029L221.39 91.36999971C177.2 105.71000029 143.92999971 142.79000029 134.54 188.20999971 106.88000029 321.47 141.56 485.42000029 229.67 638.02999971c88.17000029 152.57999971 212.91000029 264.57000029 342.09 307.17 13.14 4.29000029 26.75999971 6.50999971 40.56000029 6.5099997 32.10000029 0 62.93999971-11.81999971 86.73000029-33.3l40.2000003-36.2999997c14.28000029-12.87 35.07000029-42.72000029 13.7999997-98.03999971C740.21000029 750.65000029 710.87000029 709.21999971 676.36999971 675.95000029zM709.93999971 849.61999971l-40.2000003 36.2999997c-15.75 14.22-36.20999971 22.05-57.42 22.05-9.11999971 0-18.15000029-1.44-26.82-4.32-119.22000029-39.30000029-235.10999971-144.09-317.97-287.52000029C184.73000029 472.73000029 151.82 319.96999971 177.38 197.09 183.61999971 167.03 205.61000029 142.46 234.86000029 132.98000029l51.5400003-16.74C288.86000029 115.48999971 291.29000029 115.1 293.77999971 115.1c34.02 0 72.06000029 70.80000029 86.2499997 136.98 10.41000029 48.44999971 6.12 84.66000029-10.7399997 92.31000029l-46.28999971 20.76000029-1.17 2.43000001c-25.71000029 54.06000029-16.2 131.82000029 24.84 202.8899997 41.06999971 71.12999971 103.65000029 118.19999971 163.35 122.94l2.7 0.20999971 41.10000029-29.72999971c3.30000029-2.40000029 7.31999971-3.57000029 12.3900003-3.57000029 40.65000029 0.02999971 122.51999971 78.18000029 146.0099997 139.38000029C718.48999971 815.90000029 723.16999971 837.73999971 709.93999971 849.61999971zM858.61999971 301.31c-48.08999971-94.77-130.20000029-165.12000029-231.27000029-198.11999971-2.16-0.72-4.47000029-1.10999971-6.77999971-1.1099997-9.47999971 0-17.82 6.05999971-20.76000029 15.09000029-3.71999971 11.43 2.54999971 23.78999971 14.01000029 27.54 89.93999971 29.36999971 163.05000029 92.00999971 205.80000029 176.33999971 42.86999971 84.35999971 50.24999971 180.33000029 20.88 270.27-3.75000029 11.45999971 2.54999971 23.82000029 14.04 27.53999999 2.13000029 0.72 4.41 1.10999971 6.75 1.10999971 9.47999971 0 17.88000029-6.05999971 20.81999971-15.09000029C915.08000029 503.87000029 906.71000029 396.08 858.61999971 301.31zM586.40000029 228.74000029c-2.18999971-0.69000029-4.47000029-1.08-6.81000029-1.08-9.47999971 0-17.88000029 6.05999971-20.76000029 15.0900003-3.75000029 11.43 2.54999971 23.82000029 13.97999971 27.54 56.34 18.36 102.12000029 57.66000029 128.9999997 110.6399997 26.88000029 52.98000029 31.61999971 113.13 13.14 169.40999971-3.71999971 11.45999971 2.58000029 23.82000029 14.04 27.60000029 2.22000029 0.69000029 4.5 1.05000029 6.8100003 1.0500003 9.47999971 0 17.84999971-6.05999971 20.76000029-15.05999971 21.98999971-67.41 16.40999971-139.41-15.75-202.77C708.58999971 297.77000029 653.75 250.75999971 586.40000029 228.74000029zM531.8 395.81c47.22000029 15.45000029 73.01999971 66.35999971 57.6 113.55000029-3.71999971 11.43 2.58000029 23.78999971 14.04 27.56999971 2.18999971 0.69000029 4.47000029 1.08 6.75 1.08 9.51000029 0 17.88000029-6.09000029 20.81999971-15.09000029 22.92000029-70.08000029-15.54000029-145.73999971-85.61999971-168.66-2.16-0.72-4.47000029-1.10999971-6.81000029-1.10999971-9.47999971 0-17.82 6.05999971-20.79 15.05999971C514.07 379.72999971 520.34000029 392.09000029 531.8 395.81z" p-id="7015"></path></svg>