<?xml version="1.0" standalone="no"?><!DOCTYPE svg PUBLIC "-//W3C//DTD SVG 1.1//EN" "http://www.w3.org/Graphics/SVG/1.1/DTD/svg11.dtd"><svg t="1648327499860" class="icon" viewBox="0 0 1024 1024" version="1.1" xmlns="http://www.w3.org/2000/svg" p-id="8683" xmlns:xlink="http://www.w3.org/1999/xlink" width="200" height="200"><defs><style type="text/css">@font-face { font-family: feedback-iconfont; src: url("//at.alicdn.com/t/font_1031158_u69w8yhxdu.woff2?t=1630033759944") format("woff2"), url("//at.alicdn.com/t/font_1031158_u69w8yhxdu.woff?t=1630033759944") format("woff"), url("//at.alicdn.com/t/font_1031158_u69w8yhxdu.ttf?t=1630033759944") format("truetype"); }
</style></defs><path d="M700.56156289 427.87499961a377.75000039 377.75000039 0 0 0-21.2500002-131.7499998 117.6249999 117.6249999 0 1 0-98.62500058-92.25 188.25000029 188.25000029 0 0 0-103.87499941 14.87500048C269.18656279 301.87499961 242.3115626 497.75000029 216.4365626 686.9999999Q213.56156269 707.8749998 210.43656231 728.5000001A18.74999971 18.74999971 0 0 0 229.18656289 749.4999998h66.12499951v193.75000049a18.74999971 18.74999971 0 0 0 18.74999971 18.74999971h56.50000049a18.74999971 18.74999971 0 1 0 0-37.50000029h-37.50000029V749.4999998h131.87500048v193.75000049a18.74999971 18.74999971 0 0 0 18.74999971 18.74999971h56.49999961a18.74999971 18.74999971 0 0 0 0-37.50000029h-37.49999941V749.4999998h66.12499951a18.74999971 18.74999971 0 0 0 18.25000049-23.1249999l-67.25000039-282.4999998 48.87500009-25.00000049 10.0000002 59.75000068a18.74999971 18.74999971 0 0 0 6.62500019 11.37499981L717.0615626 599.50000039h-21.2500002a18.74999971 18.74999971 0 0 0 0 37.49999942h37.5000003v306.25000048a18.74999971 18.74999971 0 0 0 37.49999941 0v-325.00000019a18.74999971 18.74999971 0 0 0 0-3.8750001l34.50000059-23.0000001a18.74999971 18.74999971 0 0 0 4.24999951-27.37500029zM695.8115624 99.50000029a80.25000029 80.25000029 0 1 1-44.4999999 146.8749999 127.87499971 127.87499971 0 0 0-20.49999961-19.87500058A80.12499961 80.12499961 0 0 1 695.8115624 99.50000029z m-94.6249998 289.24999981A18.74999971 18.74999971 0 0 0 574.3115624 374.50000039l-84.8750001 42.37499971a18.74999971 18.74999971 0 0 0-9.87499951 21.12499951L544.81156279 712.00000039H250.8115625l2.7500001-20.12500019c25.62500039-187.49999971 50.0000001-363.75000029 237.4999998-438.6250002 47.8749999-19.125 85.87500029-19.2499998 113.37500039 0a118.50000029 118.50000029 0 0 0 21.24999932 20.49999961c42.1250001 55.50000029 37.50000029 158.37500039 37.50000029 159.6250002a18.74999971 18.74999971 0 0 0 4.12499971 12.4999998l100.00000019 125.00000068-13.87499941 9.24999961-139.25000039-113.50000019z" p-id="8684"></path></svg>