<?xml version="1.0" standalone="no"?><!DOCTYPE svg PUBLIC "-//W3C//DTD SVG 1.1//EN" "http://www.w3.org/Graphics/SVG/1.1/DTD/svg11.dtd"><svg t="1648327356691" class="icon" viewBox="0 0 1024 1024" version="1.1" xmlns="http://www.w3.org/2000/svg" p-id="3751" xmlns:xlink="http://www.w3.org/1999/xlink" width="200" height="200"><defs><style type="text/css">@font-face { font-family: feedback-iconfont; src: url("//at.alicdn.com/t/font_1031158_u69w8yhxdu.woff2?t=1630033759944") format("woff2"), url("//at.alicdn.com/t/font_1031158_u69w8yhxdu.woff?t=1630033759944") format("woff"), url("//at.alicdn.com/t/font_1031158_u69w8yhxdu.ttf?t=1630033759944") format("truetype"); }
</style></defs><path d="M408.1 64H376l16 192h-32V64h-32v192h-32V64h-32v192h-31.9l16-192H216l-16 192v53.3c0 15 4 30 11 43.8 1.2 2.3 2.4 4.6 3.8 6.8 0.4 0.7 0.9 1.5 1.4 2.2 2.8 4.4 5.9 8.7 9.4 12.7 1.1 1.3 2.3 2.7 3.5 4 3.6 3.9 7.5 7.6 11.7 11 0.7 0.6 1.4 1.1 2.1 1.7 1.4 1.1 2.8 2.2 4.3 3.2s3 2.1 4.5 3.1 3.1 1.9 4.6 2.9c7.5 4.4 15.6 8 24.1 10.6-0.2 1.6-0.4 3.1-0.4 4.8l-32 512c0 17.6 14.4 32 32 32h64c17.6 0 32-14.4 32-32l-32-512c0-1.6-0.1-3.2-0.4-4.8 8.5-2.6 16.6-6.2 24.1-10.6 1.6-0.9 3.1-1.9 4.6-2.9s3-2 4.5-3.1 2.9-2.1 4.3-3.2c0.7-0.6 1.4-1.1 2.1-1.7 4.1-3.4 8-7.1 11.7-11 1.2-1.3 2.4-2.6 3.5-4 3.4-4 6.6-8.3 9.4-12.7 0.5-0.7 0.9-1.5 1.4-2.2 1.3-2.2 2.6-4.5 3.8-6.8 7.1-13.8 11-28.8 11-43.8V256L408.1 64zM344 928h-63.9L312 418l0.1-1 0.1 1L344 928z m48-618.7c0 17.3-8.7 36.2-23.3 50.6C353 375.4 332.8 384 312 384c-20.8 0-40.9-8.6-56.7-24.2-14.6-14.4-23.3-33.3-23.3-50.6V288h160v21.3zM696 96c8.9 0 18.6 4.5 28.8 13.4 11.7 10.3 23.3 25.8 33.5 45C779 193.8 792 245 792 288c0 28-5.4 50.1-16.2 65.4-8.9 12.7-21.7 21.4-39.1 26.5l-23.7 6.9 0.7 24.7L728 928.6h-63.9l14.3-517.1 0.7-24.7-23.7-6.9c-17.5-5.1-30.3-13.7-39.1-26.5C605.4 338.1 600 316 600 288c0-43 12.9-94.2 33.8-133.6 10.1-19.2 21.7-34.8 33.5-45C677.4 100.5 687 96 696 96m0-32c-70.7 0-128 126.5-128 224 0 73.2 32.3 109.2 78.4 122.6l-14.4 518c0 17.6 14.4 32 32 32h64c17.6 0 32-14.4 32-32l-14.4-518c46-13.4 78.4-49.4 78.4-122.6 0-97.5-57.3-224-128-224z" p-id="3752"></path></svg>