<?xml version="1.0" standalone="no"?><!DOCTYPE svg PUBLIC "-//W3C//DTD SVG 1.1//EN" "http://www.w3.org/Graphics/SVG/1.1/DTD/svg11.dtd"><svg t="1648327099798" class="icon" viewBox="0 0 1024 1024" version="1.1" xmlns="http://www.w3.org/2000/svg" p-id="2695" xmlns:xlink="http://www.w3.org/1999/xlink" width="200" height="200"><defs><style type="text/css">@font-face { font-family: feedback-iconfont; src: url("//at.alicdn.com/t/font_1031158_u69w8yhxdu.woff2?t=1630033759944") format("woff2"), url("//at.alicdn.com/t/font_1031158_u69w8yhxdu.woff?t=1630033759944") format("woff"), url("//at.alicdn.com/t/font_1031158_u69w8yhxdu.ttf?t=1630033759944") format("truetype"); }
</style></defs><path d="M56.76330601 365.84936201l-2e-8 35.84539299 0.35815701 0c6.92676 176.03220201 115.41870601 325.929164 268.486894 392.81041099l0 1.49402701 17.923208 0 0 35.846416c0 39.59069401 32.100092 71.692832 71.69180901 71.692832l179.22901099 0c39.59069401 0 71.691809-32.101115 71.69180901-71.692832l0-35.846416 14.51048199 0c154.87022999-66.13014 264.921695-216.962403 271.898597-394.303414l0.35918 0 0-35.84539299L56.76330601 365.84936201 56.76330601 365.84936201zM630.29777799 867.68997799L379.375935 867.68997799l0-71.692832 250.92184299 0L630.29777799 867.68997799zM666.141124 763.234975l0-3.082198L336.473823 760.152776C197.89155799 698.064696 99.846544 561.688679 92.99960199 401.693732l823.67143901 0C909.712559 564.390207 808.443108 702.664457 666.141124 763.234975zM754.217089 347.925131l153.621796-153.62282c3.50175401-3.500731 3.50175401-9.169847 0-12.67160099l-12.672624-12.67160101c-3.500731-3.500731-9.171893-3.500731-12.671601 0l-178.966021 178.96602099L754.217089 347.925131zM726.47525801 159.26226c2.466168-4.287653 0.997724-9.76643401-3.29197602-12.23362601l-15.50615899-8.96109198c-4.288676-2.484587-9.76745799-1.014096-12.253068 3.27253299l-119.264291 206.58505501 41.393759 0L726.47525801 159.26226z" p-id="2696"></path></svg>