<?xml version="1.0" standalone="no"?><!DOCTYPE svg PUBLIC "-//W3C//DTD SVG 1.1//EN" "http://www.w3.org/Graphics/SVG/1.1/DTD/svg11.dtd"><svg t="1636708856706" class="icon" viewBox="0 0 1024 1024" version="1.1" xmlns="http://www.w3.org/2000/svg" p-id="14188" xmlns:xlink="http://www.w3.org/1999/xlink" width="200" height="200"><defs><style type="text/css"></style></defs><path d="M1021.20036579 330.98471993c0-15.39430969-12.46727168-27.88370205-27.86390926-27.88370204l-113.16132864 0c-15.39430969-25.54230443-32.73997653-50.43376925-51.92872391-74.11203755C736.24497379 115.63088555 623.23500259 53.1850843 510.05038819 53.1850843c-113.18345045 0-226.21554347 62.44580125-318.19368789 175.80389604-19.18991133 23.6782683-36.53557931 48.56856803-51.92988785 74.11203755l-110.42989284 0c-15.41759545 0-27.86390926 12.48939349-27.86390926 27.88370204 0 209.36935765 22.50698752 414.87674937 235.62654037 503.21297863l-3.66403698 104.29405753c-0.26080256 7.58887538 2.5591205 14.91694819 7.80543431 20.33907029 5.26843563 5.46287275 12.51151417 8.54243328 20.07826774 8.54243328l483.43742691 0c7.5457957 0 14.78887538-3.07956053 20.05731101-8.54243328 5.24747776-5.4221221 8.06623573-12.75019491 7.78564152-20.33907029l-3.42419228-98.00570084C997.47901895 756.01062798 1021.20036579 545.51423317 1021.20036579 330.98471993zM510.05038819 108.95248839c119.23429149 0 230.01230905 88.20582855 303.0811375 194.14736441L206.96924957 303.0998528C280.04040704 197.15831808 390.79513885 108.95248839 510.05038819 108.95248839zM716.05958997 911.60469049L290.33976149 911.60469049l2.03868046-58.41268281c59.95304505 16.82522795 132.09160249 26.14890269 219.0388281 26.14890269 79.29314987 0 146.07711459-7.84734891 202.75616198-21.98654749L716.05958997 911.60469049zM511.41727005 823.57467022c-370.44957867 0-449.50521287-163.05486507-453.86316914-464.74932793l907.7053804 0C960.92248291 660.51980515 881.84589085 823.57467022 511.41727005 823.57467022zM565.29735225 213.16038883l50.99845177 25.49922589c3.68732274 1.82095758 7.5457957 2.68835726 11.40543488 2.68835726 9.34463261 0 18.34346837-5.16015559 22.81086862-14.09262705 6.31164359-12.61863026 1.19223865-27.92794567-11.40543488-34.21630351l-50.99845177-25.49806193c-12.59650845-6.33143637-27.92561664-1.21435933-34.21397447 11.40426979C547.60472462 191.52080099 552.70084381 206.87203101 565.29735225 213.16038883zM394.74093397 233.10825586c4.92263993 0 9.8883584-1.38783971 14.28939321-4.37891413l40.26481551-27.27710493c11.66507235-7.89275648 14.70038926-23.76442653 6.78667605-35.43066283-7.91371321-11.6662363-23.74230471-14.74463289-35.40854101-6.80763278l-40.26481551 27.31901952c-11.64295054 7.89392043-14.72251107 23.72134685-6.78667605 35.38758428C378.5444261 229.20553927 386.56758329 233.10825586 394.74093397 233.10825586z" p-id="14189"></path></svg>