<?xml version="1.0" standalone="no"?><!DOCTYPE svg PUBLIC "-//W3C//DTD SVG 1.1//EN" "http://www.w3.org/Graphics/SVG/1.1/DTD/svg11.dtd"><svg t="1648327332013" class="icon" viewBox="0 0 1024 1024" version="1.1" xmlns="http://www.w3.org/2000/svg" p-id="2933" xmlns:xlink="http://www.w3.org/1999/xlink" width="200" height="200"><defs><style type="text/css">@font-face { font-family: feedback-iconfont; src: url("//at.alicdn.com/t/font_1031158_u69w8yhxdu.woff2?t=1630033759944") format("woff2"), url("//at.alicdn.com/t/font_1031158_u69w8yhxdu.woff?t=1630033759944") format("woff"), url("//at.alicdn.com/t/font_1031158_u69w8yhxdu.ttf?t=1630033759944") format("truetype"); }
</style></defs><path d="M680.33998393 211.27543808L625.86054315 163.02715335 625.86054315 123.66518841C625.86054315 94.11357355 601.7294245 70.07141774 572.06846009 70.07141774L461.89072611 70.07141888C432.22976171 70.07141888 408.09864306 94.11357469 408.09864306 123.66519069L408.09864306 163.02715563 353.61823403 211.27544035C311.21984057 239.5847259 291.0357083 261.64571477 291.0357083 308.90341376L291.0357083 871.48078763C291.0357083 924.87586361 320.26005618 959.37846955 365.48630073 959.37846955L668.47288775 959.37846955C713.70010055 959.37846955 742.92347677 924.87586361 742.92347677 871.48078763L742.92347677 308.90437632C742.92347677 261.64667619 722.73837511 239.58472363 680.33998393 211.27543808L680.33998393 211.27543808ZM461.89072611 108.65306965L572.06846009 108.65306965C580.37678307 108.65306965 587.13612857 115.38749667 587.13612857 123.66518955L587.13612857 149.50621411 446.82208825 149.50621639 446.82208825 123.66519069C446.82208825 115.38749667 453.58143488 108.65306965 461.89072611 108.65306965L461.89072611 108.65306965ZM376.22554624 242.62688768L377.34468267 241.88419072 438.08973483 188.08786489 595.86945365 188.08786489 656.61450354 241.88419072 657.73267171 242.62688768C695.94882731 268.00879047 704.1990656 279.77812423 704.1990656 308.90341149L704.1990656 342.35177301 329.75915463 342.35177301 329.75915463 308.90341149C329.75915463 279.77812423 338.0103589 268.00975531 376.22554624 242.62688768L376.22554624 242.62688768ZM704.19906333 380.93438976L704.19906333 533.70518755 329.75915463 533.70518755 329.75915463 380.93438976 704.19906333 380.93438976 704.19906333 380.93438976ZM694.59250403 908.68314453C688.67250973 916.83448377 680.12893525 920.79681877 668.47288775 920.79681877L365.48533021 920.79681877C353.8292827 920.79681877 345.28570823 916.83448377 339.36474567 908.68314453 333.17077447 900.15467065 329.75915463 886.94335033 329.75915463 871.48078763L329.75915463 572.28683833 704.19906333 572.28683833 704.19906333 871.48078763C704.19906333 886.94335033 700.78744349 900.15659918 694.59250403 908.68314453L694.59250403 908.68314453Z" p-id="2934"></path></svg>