<?xml version="1.0" standalone="no"?><!DOCTYPE svg PUBLIC "-//W3C//DTD SVG 1.1//EN" "http://www.w3.org/Graphics/SVG/1.1/DTD/svg11.dtd"><svg t="1636703397268" class="icon" viewBox="0 0 1024 1024" version="1.1" xmlns="http://www.w3.org/2000/svg" p-id="102325" xmlns:xlink="http://www.w3.org/1999/xlink" width="200" height="200"><defs><style type="text/css"></style></defs><path d="M564.1 284.2c9.2-6.2 20.9-3.3 23.9-3.3 12.6 0 36.5 10.5 57.6 19.7 26.3 11.5 51.1 22.4 70.4 22.4 23.8 0 49.1-8.7 64.6-15.2C801.5 349.9 812 397.6 812 450v46.2H603.3v32H812v50.1H705v32h107v50.1H705v32h107v50.1H603.3v32H812V882c0 25.2-19.1 45.7-42.7 45.7H599.7s-14.6 32-35.6 32h205.2c41.2 0 74.7-34.9 74.7-77.7V450c0-93.4-32-158.9-58.9-197.4-20.1-28.9-40.4-47.3-51.5-56.3l30.4-13.8v-72c0-26.3-28.1-46.9-64-46.9h-96c-35.9 0-64 20.6-64 46.9v72l30.4 13.8c-9.6 7.8-19.8 16.2-37 38.5M716 290.9c-12.6 0-36.5-10.5-57.6-19.7-26.3-11.5-51.1-22.4-70.4-22.4-9.1 0-18.3 1.4-27.2 3.4l-0.6-0.9c19.8-23.5 36.5-34.8 36.6-34.9l7.2-4.7v-35.3l-32-14.5v-51.4c0-5.2 12.1-14.9 32-14.9h96c19.9 0 32 9.6 32 14.9v51.4l-32 14.5v35.3l7.1 4.8c0.3 0.2 26.7 18.1 52.6 55.8 1.7 2.5 3.3 5 5 7.5-13.7 5.3-32.6 11.1-48.7 11.1z m-210.9-38.3c-20.1-28.9-40.4-47.3-51.5-56.3l30.4-13.8v-72c0-26.3-28.1-46.9-64-46.9h-96c-35.9 0-64 20.6-64 46.9v72l30.4 13.8c-11.2 9-31.4 27.5-51.5 56.3C212 291.1 180 356.6 180 450v432c0 42.9 33.5 77.7 74.7 77.7h234.7c41.2 0 74.7-34.9 74.7-77.7V450c-0.1-93.4-32.1-158.9-59-197.4z m-188.3-36.2l7.2-4.7v-35.3l-32-14.5v-51.4c0-5.2 12.1-14.9 32-14.9h96c19.9 0 32 9.6 32 14.9v51.4l-32 14.5v35.3l7.1 4.8c0.3 0.2 26.7 18.1 52.6 55.8 1.7 2.5 3.3 5 5 7.5-13.7 5.4-32.6 11.3-48.7 11.3-12.6 0-36.5-10.5-57.6-19.7-26.3-11.5-51.1-22.4-70.4-22.4-9.7 0-19.6 1.5-28.9 3.9 20.3-24.6 37.6-36.3 37.7-36.5z m-68.7 82.2c9.7-5 36.7-17.8 59.9-17.8 11 0 30.6 8 49.3 16.1-2.5 4.5-3.9 9.7-3.9 15.2 0 17.7 14.3 32 32 32 14.9 0 27.5-10.2 31-24.1 6.9 1.8 13.5 2.8 19.5 2.8 23.8 0 49.1-8.7 64.6-15.2 21 42.3 31.5 90 31.5 142.4v46.2H212V450c0-56.2 12.1-107 36.1-151.4zM532 610.3v50.1H425v32h107v50.1H212V528.1h320v50.1H425v32h107v0.1z m-42.7 317.4H254.7c-23.5 0-42.7-20.5-42.7-45.7V774.5h320V882c0 25.2-19.1 45.7-42.7 45.7zM336 384c0 8.8-7.2 16-16 16s-16-7.2-16-16 7.2-16 16-16 16 7.2 16 16z m56 64c0 4.4-3.6 8-8 8s-8-3.6-8-8 3.6-8 8-8 8 3.6 8 8z" p-id="102326"></path></svg>